<?xml version="1.0" standalone="no"?>
<!DOCTYPE svg PUBLIC "-//W3C//DTD SVG 1.1//EN" "http://www.w3.org/Graphics/SVG/1.1/DTD/svg11.dtd" >
<svg xmlns="http://www.w3.org/2000/svg">
<metadata></metadata>
<defs>
<font id="phosphateinline" horiz-adv-x="1515" >
<font-face units-per-em="2048" ascent="1638" descent="-410" />
<missing-glyph horiz-adv-x="409" />
<glyph horiz-adv-x="0" />
<glyph horiz-adv-x="0" />
<glyph unicode="&#xd;" horiz-adv-x="409" />
<glyph horiz-adv-x="409" />
<glyph unicode=" "  horiz-adv-x="409" />
<glyph unicode="&#x09;" horiz-adv-x="409" />
<glyph unicode="&#xa0;" horiz-adv-x="409" />
<glyph unicode="!" horiz-adv-x="589" d="M61 1366h467l-69 -963h-328zM76 0v342h438v-342h-438zM199 147h192v48h-192v-48zM270 532h49v682h-49v-682z" />
<glyph unicode="&#x22;" horiz-adv-x="774" d="M20 1366h336l-28 -594h-279zM164 920h49v299h-49v-299zM418 1366h336l-29 -594h-279zM561 920h49v299h-49v-299z" />
<glyph unicode="#" horiz-adv-x="956" d="M0 475l39 285h108l17 121h-107l39 284h107l28 201h289l-28 -201h69l29 201h289l-29 -201h106l-38 -284h-107l-18 -121h106l-39 -285h-106l-29 -201h-289l29 201h-70l-28 -201h-289l28 201h-106zM121 600h131l-31 -223h41l31 223h307l-31 -223h41l31 223h133l6 45h-133 l49 350h135l7 45h-133l30 224h-41l-32 -224h-306l31 224h-41l-33 -224h-131l-6 -45h131l-47 -350h-133zM301 645l49 350h305l-49 -350h-305zM434 760h70l18 121h-69z" />
<glyph unicode="$" horiz-adv-x="921" d="M31 1006q0 135 65.5 224t175.5 132v172h340v-141q31 -4 56.5 -7.5t46.5 -7.5l43 -6v-383l-37 4q-16 2 -36.5 4t-43.5 2q-12 0 -30.5 -1t-35 -5t-28.5 -14t-12 -29q0 -16 27.5 -40.5t67.5 -57.5t88 -76t88 -98t67.5 -125t27.5 -156q0 -141 -69.5 -248.5t-219.5 -154.5 v-164h-340v141q-53 4 -97 12.5t-75 14.5q-18 4 -34.5 8t-30.5 8v410q23 -8 46 -13t48 -10q86 -23 199 -22q94 0 94 70q0 27 -28.5 54t-73 61t-94.5 75t-94 94t-72.5 120t-28.5 153zM207 178q14 -4 29.5 -6t31.5 -4q29 -4 60.5 -7t64.5 -3h25v-205h49v209q47 8 89 26.5 t72.5 48t49 72.5t18.5 103q0 59 -29.5 112.5t-75.5 102.5t-98.5 94t-98.5 91t-75.5 92t-29.5 95q0 74 47 114t151 40q16 0 34 -1t34 -3q8 -2 16.5 -2h16.5v53q-20 0 -31 2q-14 2 -31.5 3t-36.5 1h-22v205h-49v-211q-82 -16 -132 -64.5t-50 -136.5q0 -57 29.5 -107 t75.5 -98.5t98.5 -93.5t98.5 -91t75.5 -95t29.5 -102q0 -98 -66.5 -149.5t-183.5 -51.5q-35 0 -66.5 3t-60.5 7q-16 2 -30.5 4t-28.5 6v-53z" />
<glyph unicode="%" horiz-adv-x="1472" d="M31 991q0 193 81 293t222 100t222 -100t81 -293t-81 -294t-222 -101t-222 101t-81 294zM129 991q0 -53 10.5 -105t34 -95t62 -70t98.5 -27q57 0 97 27t63.5 70t34 95t10.5 105q0 51 -10.5 104.5t-34 96.5t-63.5 69.5t-97 26.5q-59 0 -98 -26.5t-62.5 -69.5t-34 -96.5 t-10.5 -104.5zM168 991q0 37 7 83t25.5 86t51.5 66.5t82 26.5t82 -26.5t51 -66.5t25.5 -86t7.5 -83t-7.5 -83t-25.5 -86t-51 -66.5t-82 -26.5t-82 26.5t-51.5 66.5t-25.5 86t-7 83zM262 991q0 -176 72 -176t72 176t-72 176t-72 -176zM344 0l543 1366h241l-542 -1366h-242z M481 98h45l465 1170h-45zM836 375q0 193 80.5 294t222.5 101q141 0 222 -101t81 -294t-81 -293t-222 -100t-222 100t-81 293zM934 375q0 -53 10 -105.5t33.5 -95.5t62.5 -69.5t99 -26.5q57 0 97 26.5t63.5 69.5t33.5 95.5t10 105.5q0 51 -10 104t-33.5 96t-63.5 70t-97 27 q-59 0 -98.5 -27t-63 -70t-33.5 -96t-10 -104zM973 375q0 37 7 83t25.5 86t51.5 66.5t82 26.5t81.5 -26.5t51 -66.5t26 -86t7.5 -83t-7.5 -83t-26 -86t-51 -66.5t-81.5 -26.5t-82 26.5t-51.5 66.5t-25.5 86t-7 83zM1067 375q0 -176 72 -176q71 0 71 176t-71 176 q-72 0 -72 -176z" />
<glyph unicode="&#x26;" horiz-adv-x="1353" d="M31 379q0 125 56 210t149 144q-47 51 -78 119t-31 147q0 86 33 160t90 127t135 83t168 30q100 0 182 -31t140.5 -85t89 -129t30.5 -163q0 -104 -55 -182t-133 -135l186 -156q25 25 48.5 51.5t58.5 71.5l274 -233q-45 -61 -96 -116.5t-111 -105.5q-51 -41 -113.5 -80.5 t-137 -70.5t-160.5 -50.5t-183 -19.5q-141 0 -243.5 32t-169 87t-98 131t-31.5 164zM229 397q0 -68 29 -119t76 -83.5t108.5 -49t126.5 -16.5q141 0 252 45t189 100q90 63 161 148l-38 27q-33 -39 -70 -74t-78 -64q-72 -51 -176 -93t-240 -42q-49 0 -100 11.5t-93 37 t-69.5 68.5t-27.5 104q0 88 51 142.5t143 99.5l62 31l319 -267l39 27l-313 262q113 61 180 132t67 173q0 53 -21.5 98.5t-58 77t-87 49t-107.5 17.5q-49 0 -96 -17.5t-84 -49t-58.5 -76.5t-21.5 -101q0 -76 41 -134t110 -116l52 -43l-50 -24q-45 -23 -84.5 -50.5 t-68.5 -61.5t-46.5 -75.5t-17.5 -93.5zM346 993q0 86 57.5 141.5t149.5 55.5q41 0 81 -12.5t70.5 -37t50 -60.5t19.5 -83q0 -98 -61.5 -156.5t-171.5 -115.5l-64 53q-82 68 -106.5 118t-24.5 97zM457 408q0 -49 39 -73t88 -24q31 0 62.5 5.5t60.5 15.5l-199 168 q-51 -39 -51 -92zM483 1006q0 -29 13.5 -54.5t52.5 -60.5q47 29 67.5 54.5t20.5 60.5q0 76 -76 75q-35 0 -56.5 -21t-21.5 -54z" />
<glyph unicode="'" horiz-adv-x="376" d="M20 1366h336l-28 -594h-279zM164 920h49v299h-49v-299z" />
<glyph unicode="(" horiz-adv-x="569" d="M51 682q0 211 32 374t71 279q47 137 104 236h373q-29 -57 -53.5 -121t-47.5 -133q-37 -123 -67.5 -283t-30.5 -352q0 -193 31 -354.5t67 -280.5q43 -143 101 -254h-373q-57 98 -104 236q-39 117 -71 279.5t-32 373.5zM215 682q0 -162 20.5 -293t47.5 -229 q16 -57 32.5 -107.5t36.5 -95.5h54q-39 92 -70 207q-27 98 -47.5 228t-20.5 290q0 156 20.5 288t47.5 230q31 115 70 207h-54q-20 -45 -36.5 -95t-32.5 -108q-27 -98 -47.5 -230t-20.5 -292z" />
<glyph unicode=")" horiz-adv-x="569" d="M-61 -207q55 115 98 254q37 119 68.5 280.5t31.5 354.5t-31.5 352.5t-68.5 282.5q-45 143 -98 254h372q29 -51 54.5 -110.5t48.5 -125.5q39 -117 71.5 -279.5t32.5 -373.5t-32.5 -374t-71.5 -279q-23 -66 -48.5 -125.5t-54.5 -110.5h-372zM164 -43h53q37 88 68 203 q27 98 48 229t21 293q0 160 -21.5 292t-47.5 230q-31 113 -68 203h-53q18 -47 34.5 -98.5t32.5 -108.5q27 -98 48.5 -230t21.5 -288q0 -160 -21.5 -290t-48.5 -228q-16 -57 -32.5 -108.5t-34.5 -98.5z" />
<glyph unicode="*" horiz-adv-x="786" d="M10 961l113 49l-113 49l150 258l98 -74l-14 123h299l-15 -121l99 72l149 -258l-112 -49l112 -49l-149 -259l-99 72l15 -121h-299l14 121l-98 -72zM201 926l24 -41l144 84v-168h49v168l143 -84l25 41l-146 84l146 84l-25 41l-143 -84v168h-49v-168l-144 84l-24 -41 l145 -84z" />
<glyph unicode="+" horiz-adv-x="942" d="M41 383v340h260v260h340v-260h260v-340h-260v-260h-340v260h-260zM164 528h282v-282h50v282h282v50h-282v282h-50v-282h-282v-50z" />
<glyph unicode="," horiz-adv-x="561" d="M0 -211l137 553h389l-178 -553h-348zM172 -129h49l113 389h-51z" />
<glyph unicode="-" horiz-adv-x="643" d="M51 512v342h541v-342h-541zM176 659h295v48h-295v-48z" />
<glyph unicode="." horiz-adv-x="561" d="M61 0v342h439v-342h-439zM184 147h193v48h-193v-48z" />
<glyph unicode="/" horiz-adv-x="892" d="M-20 -33l587 1432h346l-587 -1432h-346zM166 66h51l510 1234h-51z" />
<glyph unicode="0" horiz-adv-x="1183" d="M41 682q0 348 145.5 532.5t405.5 184.5t405.5 -184.5t145.5 -532.5t-145.5 -532.5t-405.5 -184.5t-405.5 184.5t-145.5 532.5zM231 682q0 -92 17.5 -187.5t58.5 -173t110.5 -127t174.5 -49.5q104 0 174 49.5t111 127t58 173t17 187.5t-17 187.5t-58 173t-111 127 t-174 49.5t-174 -49.5t-111 -127t-58.5 -173t-17.5 -187.5zM285 682q0 70 12 155t46 158.5t93.5 123.5t155.5 50q94 0 154.5 -50t94 -123.5t46 -158.5t12.5 -155t-12.5 -155t-46 -158.5t-94 -123.5t-154.5 -50q-96 0 -155.5 50t-93.5 123.5t-46 158.5t-12 155zM461 682 q0 -322 131 -322t131 322t-131 322t-131 -322z" />
<glyph unicode="1" horiz-adv-x="647" d="M-51 1049l299 317h327v-1366h-442v834zM162 1034l31 -35l131 134v-969h53v1038h-58z" />
<glyph unicode="2" horiz-adv-x="880" d="M-51 0l344 655q43 82 55 123t12 78q0 137 -167 137q-16 0 -31 -1t-27 -3q-10 -2 -26 -2v379q29 6 51 10t43.5 6t45 3t54.5 1q98 0 193.5 -21.5t171 -70.5t123 -131t47.5 -200q0 -55 -12.5 -109.5t-38 -118t-65.5 -142.5t-93 -183l-27 -52h258l-117 -358h-794zM231 164 h402l18 49h-336l232 438q37 72 60.5 139.5t23.5 137.5q0 135 -87 204.5t-225 69.5q-6 0 -11 -1t-9 -1h-6v-49h6q4 0 9 1t11 1q117 0 188 -58.5t71 -168.5q0 -57 -20.5 -120t-57.5 -134z" />
<glyph unicode="3" horiz-adv-x="821" d="M41 -14v381q23 -4 42 -4.5t38 -0.5q66 0 109.5 13.5t69.5 36t37 50t11 58.5q0 43 -28.5 82t-71.5 72t-92.5 58.5t-87.5 43.5q35 23 69.5 47.5t62 50t44 50t16.5 47.5q0 37 -27.5 50t-60.5 13q-51 0 -92 -10l-39 -10v344l68 12q35 4 87 8t123 4q203 0 297.5 -91t94.5 -238 q0 -51 -16.5 -93t-37.5 -73q-10 -18 -23 -34.5t-28 -33.5q27 -20 49.5 -43.5t42.5 -50.5q35 -47 64 -112.5t29 -147.5q0 -127 -52.5 -218t-140.5 -149.5t-203.5 -86t-240.5 -27.5h-48t-65 2zM199 150h12q80 0 148.5 22.5t120.5 65.5t82 103t30 138q0 94 -47 168t-160 158 q76 72 101.5 122t25.5 103q0 86 -64.5 132t-150.5 46q-20 0 -36.5 -1t-29.5 -3l-26 -4v-45q12 0 22 2t28.5 3t41.5 1q72 0 117 -34.5t45 -100.5q0 -59 -39 -111.5t-111 -113.5q59 -41 103.5 -78t72 -74t41 -78t13.5 -92q0 -68 -26 -120t-71 -87.5t-104 -54t-127 -18.5h-12 v-49z" />
<glyph unicode="4" horiz-adv-x="960" d="M-10 190v164l542 1012h347v-793h82v-383h-82v-190h-424v190h-465zM201 354h426v-190h53v190h90v49h-90v799h-25zM287 403l340 635v-635h-340z" />
<glyph unicode="5" horiz-adv-x="831" d="M0 764l246 602h555v-383h-256q33 -23 62.5 -49.5t56.5 -59.5q45 -55 81.5 -136t36.5 -191q0 -152 -61.5 -260.5t-160.5 -179t-226 -104.5t-256 -34q-31 0 -37 2q-10 0 -14 2v389q154 0 233.5 55.5t79.5 147.5q0 63 -32 102.5t-82 61t-110.5 28.5t-115.5 7zM158 143 q61 0 135 22.5t138.5 71t108.5 124t44 180.5q0 109 -43 179.5t-95 110.5q-55 47 -135 76l99 246h254v49h-287l-131 -323q76 -18 141 -62q53 -37 98 -103.5t45 -172.5t-44 -174t-104 -107t-123.5 -53t-100.5 -14v-50z" />
<glyph unicode="6" horiz-adv-x="1114" d="M31 504q0 86 18.5 169t49 159.5t69.5 145.5t80 128q98 141 219 260h496l-99 -109q-43 -51 -93 -118.5t-97 -153.5q92 -18 168 -64.5t130 -112t82.5 -149.5t28.5 -178q0 -109 -38.5 -202t-107.5 -163.5t-163 -110.5t-205 -40q-115 0 -214 40t-170.5 112.5t-112.5 171 t-41 215.5zM221 520q0 -86 26.5 -153.5t73 -114.5t106.5 -71.5t130 -24.5t131.5 26.5t106.5 71.5t71.5 106.5t26.5 131.5t-26.5 131t-71.5 106t-106.5 71.5t-131.5 26.5q-76 0 -140.5 -29.5t-111.5 -82.5q33 100 86 189t107 155q31 39 62.5 74.5t66.5 68.5h-66 q-98 -98 -170 -209q-66 -98 -118 -218t-52 -255zM276 492q0 57 21.5 108t60.5 90t89.5 60.5t109.5 21.5q57 0 108.5 -21.5t90.5 -60.5t60.5 -90t21.5 -108q0 -59 -21.5 -109.5t-60.5 -89.5t-90.5 -60.5t-108.5 -21.5q-59 0 -109.5 21.5t-89.5 60.5t-60.5 89.5t-21.5 109.5z M434 494q0 -53 36 -89t87 -36t87 35.5t36 87.5q0 51 -36 86.5t-87 35.5q-49 0 -86 -35.5t-37 -84.5z" />
<glyph unicode="7" horiz-adv-x="927" d="M-31 0l389 985h-374l151 381h834l-539 -1366h-461zM221 1153h400l-390 -989h58l409 1038h-458z" />
<glyph unicode="8" horiz-adv-x="1052" d="M20 440q0 86 24 148.5t52 105.5q33 51 78 86q-10 12 -20.5 26.5t-18.5 31.5q-14 29 -25.5 69.5t-11.5 93.5q0 84 34 157t92.5 126t136 84t165.5 31t166 -31t136.5 -84t92 -126t33.5 -157q0 -53 -12 -94t-27 -69q-14 -31 -36 -58q20 -16 39.5 -37.5t35.5 -48.5 q29 -43 53.5 -105.5t24.5 -148.5q0 -104 -40 -191t-108.5 -150.5t-161 -98.5t-196.5 -35t-196 35t-161 98.5t-109 150.5t-40 191zM201 473q0 -68 25.5 -127t69.5 -103t103.5 -70t126.5 -26q68 0 127.5 26t103.5 70t69.5 103.5t25.5 126.5q0 86 -33 143.5t-74 92.5 q-47 41 -106 65q31 16 61 47q23 25 42.5 64t19.5 92q0 49 -18.5 91t-51.5 72.5t-75 49t-91 18.5t-91 -18.5t-74.5 -49t-51 -72.5t-18.5 -91q0 -53 19.5 -92t41.5 -64q31 -31 62 -47q-59 -25 -107 -65q-41 -35 -73.5 -92.5t-32.5 -143.5zM256 473q0 55 21.5 104.5t58.5 86 t86 58t104 21.5t104.5 -21.5t86.5 -58t58.5 -86t21.5 -104.5t-21.5 -104.5t-58.5 -86t-86 -58t-105 -21.5q-55 0 -104 21.5t-86 58t-58.5 86t-21.5 104.5zM344 975q0 76 53.5 127t128.5 51q76 0 129.5 -51t53.5 -127t-53.5 -128t-129.5 -52t-129 52t-53 128zM416 473 q0 -47 31.5 -79t78.5 -32t79 32t32 79t-32 79t-79 32t-78.5 -32t-31.5 -79zM457 973q0 -29 20.5 -49.5t48.5 -20.5q29 0 49.5 20.5t20.5 49.5t-20.5 49t-49.5 20t-49 -20t-20 -49z" />
<glyph unicode="9" horiz-adv-x="1114" d="M31 885q0 106 39 200.5t107.5 165t162.5 110.5t205 40q115 0 213 -40t170.5 -112.5t113.5 -171t41 -215.5q0 -86 -19.5 -169t-50 -159.5t-69.5 -146.5t-80 -129q-47 -70 -102 -134.5t-115 -123.5h-495q23 23 47 50.5t51 55.5q43 51 93 120t97 155q-92 18 -167.5 64.5 t-130 112t-83 149.5t-28.5 178zM221 874q0 -70 26.5 -131t72 -106t106.5 -71.5t131 -26.5q76 0 140.5 29.5t111.5 82.5q-33 -100 -86 -189t-107 -155q-31 -39 -62.5 -74.5t-66.5 -68.5h66q47 47 89 99t81 110q31 47 61.5 102t54 115.5t39 125t15.5 130.5q0 86 -26.5 153.5 t-72.5 114.5t-106.5 71.5t-130.5 24.5t-131 -26.5t-106.5 -71.5t-72 -106.5t-26.5 -131.5zM276 874q0 57 21.5 108.5t60.5 90.5t89.5 60.5t109.5 21.5q57 0 108.5 -21.5t90.5 -60.5t60.5 -90.5t21.5 -108.5q0 -59 -21.5 -109t-60.5 -89t-90.5 -60.5t-108.5 -21.5 q-59 0 -109.5 21.5t-89.5 60.5t-60.5 89t-21.5 109zM434 874q0 -51 36 -86.5t87 -35.5q49 0 86 35.5t37 84.5q0 53 -36 89t-87 36t-87 -35.5t-36 -87.5z" />
<glyph unicode=":" horiz-adv-x="561" d="M61 0v342h439v-342h-439zM61 553v342h439v-342h-439zM184 147h193v48h-193v-48zM184 700h193v48h-193v-48z" />
<glyph unicode=";" horiz-adv-x="561" d="M0 -211l137 553h389l-178 -553h-348zM88 553v342h438v-342h-438zM172 -129h49l113 389h-51zM211 700h192v48h-192v-48z" />
<glyph unicode="&#x3c;" horiz-adv-x="962" d="M51 348v254l860 348v-340l-336 -135l336 -135v-340zM174 451l614 -250v53l-550 221l550 221v54l-614 -250v-49z" />
<glyph unicode="=" horiz-adv-x="942" d="M41 281v581h860v-581h-860zM164 426h614v49h-614v-49zM164 668h614v49h-614v-49z" />
<glyph unicode="&#x3e;" horiz-adv-x="962" d="M51 0v340l336 135l-336 135v340l860 -348v-254zM174 201l614 250v49l-614 250v-54l551 -221l-551 -221v-53z" />
<glyph unicode="?" horiz-adv-x="782" d="M31 997v381q37 6 64.5 10.5t50 6.5t44 3t50.5 1q117 0 211 -30t160.5 -85t103.5 -133t37 -172q0 -90 -36 -163t-79 -140.5t-79 -133t-36 -139.5h-436q0 96 28.5 166t63.5 124.5t63.5 97.5t28.5 86q0 39 -16 62.5t-43 36.5t-62.5 17t-74.5 4h-43zM86 0v342h438v-342h-438z M188 1153h54q47 0 90 -11.5t75.5 -35t52 -61t19.5 -89.5q0 -59 -26.5 -117.5t-58.5 -113.5t-58.5 -104.5t-26.5 -88.5h49q0 37 27 86.5t58.5 105.5t58 115.5t26.5 116.5q0 111 -69.5 178.5t-216.5 67.5h-54v-49zM209 147h192v48h-192v-48z" />
<glyph unicode="@" horiz-adv-x="1789" d="M113 682q0 160 60 298t164.5 238.5t248 158t309.5 57.5t309.5 -57.5t247.5 -158t164.5 -238.5t60.5 -298q0 -90 -24.5 -166t-72.5 -130t-118.5 -85t-165.5 -31q-51 0 -89 10.5t-64 24.5q-16 8 -29.5 16.5t-23.5 18.5q-16 -12 -35 -23.5t-39 -21.5q-35 -16 -81 -30.5 t-101 -14.5q-92 0 -167 33.5t-128.5 91t-83 130.5t-29.5 152q0 80 29.5 153t83 130t128 91t167.5 34q47 0 89 -11.5t76 -25.5v31h308v-477q0 -63 30.5 -85t63.5 -22q55 0 91 54.5t36 152.5q0 154 -52.5 269.5t-139.5 194.5t-201.5 119t-239.5 40t-239.5 -40t-201.5 -119 t-139.5 -194.5t-52.5 -269.5q0 -139 49 -254t134 -196.5t201 -127t249 -45.5q92 0 162.5 11.5t120.5 25.5q55 14 100 37l49 -94q-57 -29 -125 -49q-59 -18 -143 -32.5t-189 -14.5q-176 0 -316 60t-238.5 162.5t-150.5 236t-52 280.5zM565 657q0 -61 23.5 -116.5t63.5 -95 t95.5 -63.5t116.5 -24q86 0 154.5 43t107.5 111q12 -76 63.5 -116t137.5 -40q39 0 78 12.5t69.5 28t50 28.5t23.5 17q-4 -4 -21.5 -13t-45 -19.5t-62.5 -18.5t-71 -8q-80 0 -132.5 45t-52.5 137v371h-41v-127q-39 66 -107.5 106.5t-150.5 40.5q-61 0 -116.5 -23.5 t-95.5 -63.5t-63.5 -95.5t-23.5 -116.5zM606 657q0 53 20.5 100.5t55.5 82t82 55t100 20.5t100.5 -20.5t82 -55t55 -81.5t20.5 -101q0 -53 -20.5 -100t-55 -82t-81.5 -55.5t-101 -20.5q-53 0 -100 20.5t-82 55.5t-55.5 82t-20.5 100zM727 657q0 -59 44 -103t103 -44 t103.5 44t44.5 103t-44 103.5t-104 44.5q-59 0 -103 -44.5t-44 -103.5z" />
<glyph unicode="A" horiz-adv-x="1282" d="M-41 0l518 1366h328l518 -1366h-430l-45 123h-414l-45 -123h-430zM207 164h57l39 102h676l39 -102h57l-395 1038h-78zM322 315l319 838l320 -838h-639zM549 424h184l-92 240z" />
<glyph unicode="B" horiz-adv-x="1148" d="M72 0v1366h534q102 0 187.5 -23.5t145.5 -69.5t94 -114.5t34 -161.5q0 -66 -16.5 -111.5t-34.5 -76.5q-23 -37 -51 -61q45 -29 82 -74q31 -39 56 -98.5t25 -145.5q0 -98 -34.5 -178t-99 -136.5t-158 -86t-207.5 -29.5h-557zM276 164h295q180 0 266.5 77.5t86.5 207.5 q0 84 -36 134t-77 79q-51 33 -113 45q49 14 88 45q35 27 63 72.5t28 117.5q0 129 -82 194.5t-224 65.5h-295v-1038zM330 213v469h239q63 0 117.5 -13.5t95.5 -41t64.5 -72.5t23.5 -106q0 -125 -82.5 -180.5t-218.5 -55.5h-239zM330 731v422h241q133 0 191.5 -58.5 t58.5 -152.5t-58 -152.5t-192 -58.5h-241zM494 322h49q156 0 155 118q0 119 -155 119h-49v-237zM494 856h49q102 0 102 94t-102 94h-49v-188z" />
<glyph unicode="C" horiz-adv-x="1257" d="M41 682q0 164 57.5 296t155.5 226t229 144.5t279 50.5q117 0 208 -22.5t156 -51.5q76 -33 131 -72l-215 -379q-33 25 -71 48q-35 16 -83 31.5t-110 15.5q-63 0 -116.5 -22.5t-93.5 -61.5t-62.5 -91.5t-22.5 -111.5t23.5 -111.5t64.5 -91.5t96.5 -61.5t120.5 -22.5 q66 0 117 16.5t86 37.5q41 23 72 53l215 -379q-55 -45 -131 -80q-66 -29 -158 -53.5t-211 -24.5q-160 0 -295 52.5t-233 146.5t-153.5 226t-55.5 292zM246 682q0 -121 42 -217t115.5 -165t172 -105.5t208.5 -36.5q61 0 110.5 10t84.5 22q39 14 70 33l-29 49q-27 -18 -62 -30 q-31 -12 -73.5 -21.5t-100.5 -9.5q-113 0 -202.5 37t-152 100.5t-96.5 149.5t-34 184t34 184t95 149.5t149.5 100.5t196.5 37q53 0 95 -7t71 -18q35 -10 59 -24l29 49q-33 14 -70 27q-35 10 -79.5 18t-104.5 8q-104 0 -199.5 -36.5t-168 -105.5t-116.5 -166t-44 -216z" />
<glyph unicode="D" horiz-adv-x="1300" d="M72 0v1366h379q193 0 343 -43t253.5 -129t158 -214t54.5 -296t-54.5 -296t-158 -214t-254 -130t-342.5 -44h-379zM276 164h175q299 0 451.5 136t152.5 384t-152.5 383t-451.5 135h-175v-1038zM330 213v940h121q260 0 404 -117.5t144 -351.5q0 -233 -144 -352t-404 -119 h-121zM508 389q154 0 237.5 73t83.5 222q0 150 -83.5 221.5t-237.5 71.5v-588z" />
<glyph unicode="E" horiz-adv-x="942" d="M72 0v1366h805v-358h-369v-152h362v-340h-362v-158h383v-358h-819zM276 164h463v49h-409v449h389v49h-389v442h409v49h-463v-1038z" />
<glyph unicode="F" horiz-adv-x="917" d="M72 0v1366h805v-358h-369v-152h362v-340h-362v-516h-436zM276 164h54v498h389v49h-389v442h409v49h-463v-1038z" />
<glyph unicode="G" horiz-adv-x="1427" d="M41 682q0 147 53 278.5t146.5 228.5t221.5 153.5t275 56.5q115 0 199 -22.5t141 -51.5q68 -33 113 -72l-248 -352q-37 33 -92 50.5t-109 17.5q-59 0 -108 -21.5t-85 -59.5t-56.5 -91.5t-20.5 -114.5t22.5 -114.5t61.5 -91.5t91 -59.5t112 -21.5q70 0 127 30t98 81h-123 v287h526v-455q-47 -84 -112.5 -152.5t-146 -118t-175 -76t-194.5 -26.5q-147 0 -278.5 55.5t-228.5 151.5t-153.5 227t-56.5 283zM233 682q0 -117 41 -213t113 -164.5t167 -107.5t204 -39q141 0 255.5 66.5t186.5 176.5v269h-217v-49h164v-205q-63 -94 -164.5 -149.5 t-224.5 -55.5q-98 0 -183.5 34t-150 96t-101 149.5t-36.5 191.5t35.5 191.5t98 149.5t146.5 96t183 34q37 0 69.5 -6t57.5 -12q29 -8 53 -17l33 47q-27 12 -60 21q-29 8 -67.5 14t-85.5 6q-109 0 -203 -39t-164 -107.5t-110 -164.5t-40 -213z" />
<glyph unicode="H" horiz-adv-x="1261" d="M72 0v1366h436v-465h244v465h438v-1366h-438v506h-244v-506h-436zM276 164h54v518h602v-518h53v1038h-53v-471h-602v471h-54v-1038z" />
<glyph unicode="I" horiz-adv-x="606" d="M72 0v1366h463v-1366h-463zM276 164h54v1038h-54v-1038z" />
<glyph unicode="J" horiz-adv-x="776" d="M0 0v328h150q66 0 88 24.5t22 69.5v944h451v-1020q0 -190 -87 -268t-278 -78h-346zM164 164h166q100 0 141 44t41 132v862h-55v-862q0 -63 -22.5 -95t-104.5 -32h-166v-49z" />
<glyph unicode="K" horiz-adv-x="1300" d="M72 0v1366h442v-315l258 315h535l-482 -625l506 -741h-526l-291 422v-422h-442zM276 164h54v276l213 265l372 -541h64l-399 584l366 454h-65l-551 -680v680h-54v-1038z" />
<glyph unicode="L" horiz-adv-x="903" d="M72 0v1366h454v-1008h377v-358h-831zM276 164h512v49h-458v989h-54v-1038z" />
<glyph unicode="M" horiz-adv-x="1574" d="M72 0v1366h360l356 -524l355 524h360v-1366h-436v492l-279 -410l-280 410v-492h-436zM276 164h54v940l458 -668l457 668v-940h53v1038h-53l-457 -674l-458 674h-54v-1038z" />
<glyph unicode="N" horiz-adv-x="1306" d="M72 0v1366h358l377 -526v526h428v-1366h-361l-374 524v-524h-428zM262 164h53v946l676 -946h53v1038h-53v-946l-676 946h-53v-1038z" />
<glyph unicode="O" d="M41 682q0 147 56.5 278.5t153.5 228.5t228 153.5t279 56.5q147 0 278 -56.5t228.5 -153.5t154 -228.5t56.5 -278.5t-56.5 -278.5t-154 -228.5t-228.5 -153.5t-278 -56.5t-278.5 56.5t-228.5 153.5t-153.5 228.5t-56.5 278.5zM233 682q0 -109 41 -204t113 -166.5 t167 -112.5t204 -41t204 41t166.5 112.5t112.5 166.5t41 204t-41 204t-112.5 166.5t-167 112.5t-203.5 41q-109 0 -204 -41t-167 -112.5t-113 -166.5t-41 -204zM287 682q0 98 36.5 183t101 149.5t149.5 101.5t184 37q98 0 183 -37t149.5 -101.5t101.5 -149.5t37 -183 t-37 -183t-101.5 -149.5t-149.5 -101.5t-183 -37t-183.5 37t-150 101.5t-101 149.5t-36.5 183zM471 682q0 -59 22.5 -111.5t61.5 -91.5t91 -61.5t112 -22.5q59 0 111.5 22.5t91 61.5t61 91.5t22.5 111.5t-22.5 111.5t-61 91.5t-91 61.5t-111.5 22.5t-111.5 -22.5 t-91.5 -61.5t-61.5 -91.5t-22.5 -111.5z" />
<glyph unicode="P" horiz-adv-x="1165" d="M72 0v1366h436q131 0 244.5 -28.5t198.5 -90t134.5 -161t49.5 -240.5t-49.5 -240.5t-134.5 -161t-198.5 -90t-244.5 -28.5v-326h-436zM276 164h54v325h178q92 0 171 21.5t136 64.5t89 111t32 160t-32 159.5t-89 110.5t-136 64.5t-171 21.5h-232v-1038zM330 539v614h178 q74 0 140.5 -15.5t117.5 -50t82 -94t31 -147.5t-31 -147.5t-82 -94.5t-117.5 -50t-140.5 -15h-178zM508 694h18q86 0 124 40t38 112t-38 111.5t-124 39.5h-18v-303z" />
<glyph unicode="Q" d="M41 682q0 147 56.5 278.5t153.5 228.5t228 153.5t279 56.5q147 0 278 -56.5t228.5 -153.5t154 -228.5t56.5 -278.5q0 -88 -20.5 -170t-57.5 -154h127l-185 -358h-362q-109 -35 -219 -35q-147 0 -278.5 56.5t-228.5 153.5t-153.5 228.5t-56.5 278.5zM233 682 q0 -109 41 -204t113 -166.5t169 -112.5t210 -41h522l25 49h-334q68 31 123 80t95 110.5t62.5 134t22.5 150.5q0 109 -41 204t-112.5 166.5t-167 112.5t-203.5 41q-109 0 -204 -41t-167 -112.5t-113 -166.5t-41 -204zM287 682q0 98 36.5 183t101 149.5t149.5 101.5t184 37 q98 0 183 -37t149.5 -101.5t101.5 -149.5t37 -183t-37 -183t-101.5 -149.5t-149.5 -101.5t-183 -37t-183.5 37t-150 101.5t-101 149.5t-36.5 183zM471 682q0 -59 22.5 -111.5t61.5 -91.5t91 -61.5t112 -22.5q59 0 111.5 22.5t91 61.5t61 91.5t22.5 111.5t-22.5 111.5 t-61 91.5t-91 61.5t-111.5 22.5t-111.5 -22.5t-91.5 -61.5t-61.5 -91.5t-22.5 -111.5z" />
<glyph unicode="R" horiz-adv-x="1193" d="M72 0v1366h471q131 0 242.5 -35t193.5 -102.5t128 -166.5t46 -228q0 -102 -28.5 -174t-63.5 -119q-41 -53 -92 -90l256 -451h-512l-205 346v-346h-436zM276 164h54v311h168q80 0 155 17l195 -328h63l-204 344q111 39 176 120t65 210q0 90 -34.5 157.5t-95 113.5 t-142.5 69.5t-178 23.5h-222v-1038zM330 524v629h168q186 0 291.5 -82t105.5 -233q0 -152 -105.5 -233t-291.5 -81h-168zM508 694h22q78 0 132.5 35t54.5 117t-54.5 116.5t-132.5 34.5h-22v-303z" />
<glyph unicode="S" horiz-adv-x="921" d="M31 1006q0 96 34.5 169.5t96 123t144.5 75t177 25.5q49 0 98.5 -5t88.5 -10q45 -6 88 -12v-383q-16 2 -37 4q-16 2 -36.5 4t-43.5 2q-12 0 -30.5 -1t-35 -5t-28.5 -14t-12 -29q0 -16 27.5 -40.5t67.5 -57.5t88 -76t88 -98t67.5 -125t27.5 -156q0 -90 -28.5 -168.5 t-89 -137t-154.5 -92.5t-223 -34q-78 0 -144.5 7.5t-118.5 17.5q-59 10 -108 24v410q45 -14 94 -23q41 -10 93 -16t106 -6q94 0 94 70q0 27 -28.5 54t-73 61t-94.5 75t-94 94t-72.5 120t-28.5 153zM207 178q29 -6 61 -10q29 -4 60.5 -7t64.5 -3q57 0 111.5 13t97.5 44 t68.5 79t25.5 118q0 59 -29.5 112.5t-75.5 102.5t-98.5 94t-98.5 91t-75.5 92t-29.5 95q0 74 47 114t151 40q16 0 34 -1t34 -3t33 -2v53q-14 0 -31 2q-14 2 -31.5 3t-36.5 1q-111 0 -182 -50t-71 -157q0 -57 29.5 -107t75.5 -98.5t98.5 -93.5t98.5 -91t75.5 -95t29.5 -102 q0 -98 -66.5 -149.5t-183.5 -51.5q-70 0 -127 10q-31 4 -59 10v-53z" />
<glyph unicode="T" horiz-adv-x="954" d="M0 1008v358h954v-358h-252v-1008h-450v1008h-252zM158 1153h293v-989h53v989h293v49h-639v-49z" />
<glyph unicode="U" horiz-adv-x="1263" d="M66 498v868h436v-850q0 -72 29.5 -109.5t99.5 -37.5t99.5 37.5t29.5 109.5v850h438v-868q0 -135 -40 -235.5t-114.5 -166t-179 -98.5t-233.5 -33t-233.5 33t-178.5 98.5t-113.5 165.5t-39.5 236zM270 512q0 -172 93.5 -263t267.5 -91t268 91t94 263v690h-55v-690 q0 -301 -307 -301t-307 301v690h-54v-690z" />
<glyph unicode="V" horiz-adv-x="1337" d="M-41 1366h477l232 -594l233 594h477l-532 -1366h-354zM242 1202l405 -1038h43l406 1038h-58l-370 -944l-369 944h-57z" />
<glyph unicode="W" horiz-adv-x="1773" d="M-41 1366h463l158 -477l157 477h299l158 -477l158 477h463l-451 -1366h-340l-137 414l-137 -414h-340zM221 1202l342 -1038h51l273 858l272 -858h51l342 1038h-55l-311 -944l-299 944l-299 -944l-312 944h-55z" />
<glyph unicode="X" horiz-adv-x="1173" d="M-41 0l389 707l-362 659h477l123 -223l123 223h479l-363 -659l389 -707h-477l-151 272l-150 -272h-477zM256 164h61l269 487l268 -487h61l-299 543l273 495h-62l-241 -440l-242 440h-61l272 -495z" />
<glyph unicode="Y" horiz-adv-x="1202" d="M-41 1366h485l158 -289l156 289h485l-424 -778v-588h-436v588zM276 1202l297 -549v-489h56v489l299 549h-64l-262 -485l-264 485h-62z" />
<glyph unicode="Z" horiz-adv-x="1060" d="M-41 0l475 1008h-377l140 358h874l-475 -1008h448l-137 -358h-948zM240 164h561l20 49h-497l467 989h-488l-18 -49h422z" />
<glyph unicode="[" horiz-adv-x="604" d="M51 -207v1778h543v-346h-182v-1086h182v-346h-543zM215 -43h244v49h-191v1352h191v49h-244v-1450z" />
<glyph unicode="\" horiz-adv-x="892" d="M-20 1399h346l587 -1432h-346zM166 1300l510 -1234h51l-510 1234h-51z" />
<glyph unicode="]" horiz-adv-x="604" d="M10 139h183v1086h-183v346h543v-1778h-543v346zM145 6v-49h244v1450h-244v-49h191v-1352h-191z" />
<glyph unicode="^" horiz-adv-x="1044" d="M51 891l268 475h406l268 -475h-272l-201 268l-196 -268h-273z" />
<glyph unicode="_" horiz-adv-x="899" d="M0 -164h899v-149h-899v149z" />
<glyph unicode="`" horiz-adv-x="542" d="M51 1374h271l170 -317h-230zM209 1292l100 -153h43l-82 153h-61z" />
<glyph unicode="a" horiz-adv-x="1282" d="M-41 0l518 1366h328l518 -1366h-430l-45 123h-414l-45 -123h-430zM207 164h57l39 102h676l39 -102h57l-395 1038h-78zM322 315l319 838l320 -838h-639zM549 424h184l-92 240z" />
<glyph unicode="b" horiz-adv-x="1148" d="M72 0v1366h534q102 0 187.5 -23.5t145.5 -69.5t94 -114.5t34 -161.5q0 -66 -16.5 -111.5t-34.5 -76.5q-23 -37 -51 -61q45 -29 82 -74q31 -39 56 -98.5t25 -145.5q0 -98 -34.5 -178t-99 -136.5t-158 -86t-207.5 -29.5h-557zM276 164h295q180 0 266.5 77.5t86.5 207.5 q0 84 -36 134t-77 79q-51 33 -113 45q49 14 88 45q35 27 63 72.5t28 117.5q0 129 -82 194.5t-224 65.5h-295v-1038zM330 213v469h239q63 0 117.5 -13.5t95.5 -41t64.5 -72.5t23.5 -106q0 -125 -82.5 -180.5t-218.5 -55.5h-239zM330 731v422h241q133 0 191.5 -58.5 t58.5 -152.5t-58 -152.5t-192 -58.5h-241zM494 322h49q156 0 155 118q0 119 -155 119h-49v-237zM494 856h49q102 0 102 94t-102 94h-49v-188z" />
<glyph unicode="c" horiz-adv-x="1257" d="M41 682q0 164 57.5 296t155.5 226t229 144.5t279 50.5q117 0 208 -22.5t156 -51.5q76 -33 131 -72l-215 -379q-33 25 -71 48q-35 16 -83 31.5t-110 15.5q-63 0 -116.5 -22.5t-93.5 -61.5t-62.5 -91.5t-22.5 -111.5t23.5 -111.5t64.5 -91.5t96.5 -61.5t120.5 -22.5 q66 0 117 16.5t86 37.5q41 23 72 53l215 -379q-55 -45 -131 -80q-66 -29 -158 -53.5t-211 -24.5q-160 0 -295 52.5t-233 146.5t-153.5 226t-55.5 292zM246 682q0 -121 42 -217t115.5 -165t172 -105.5t208.5 -36.5q61 0 110.5 10t84.5 22q39 14 70 33l-29 49q-27 -18 -62 -30 q-31 -12 -73.5 -21.5t-100.5 -9.5q-113 0 -202.5 37t-152 100.5t-96.5 149.5t-34 184t34 184t95 149.5t149.5 100.5t196.5 37q53 0 95 -7t71 -18q35 -10 59 -24l29 49q-33 14 -70 27q-35 10 -79.5 18t-104.5 8q-104 0 -199.5 -36.5t-168 -105.5t-116.5 -166t-44 -216z" />
<glyph unicode="d" horiz-adv-x="1300" d="M72 0v1366h379q193 0 343 -43t253.5 -129t158 -214t54.5 -296t-54.5 -296t-158 -214t-254 -130t-342.5 -44h-379zM276 164h175q299 0 451.5 136t152.5 384t-152.5 383t-451.5 135h-175v-1038zM330 213v940h121q260 0 404 -117.5t144 -351.5q0 -233 -144 -352t-404 -119 h-121zM508 389q154 0 237.5 73t83.5 222q0 150 -83.5 221.5t-237.5 71.5v-588z" />
<glyph unicode="e" horiz-adv-x="942" d="M72 0v1366h805v-358h-369v-152h362v-340h-362v-158h383v-358h-819zM276 164h463v49h-409v449h389v49h-389v442h409v49h-463v-1038z" />
<glyph unicode="f" horiz-adv-x="917" d="M72 0v1366h805v-358h-369v-152h362v-340h-362v-516h-436zM276 164h54v498h389v49h-389v442h409v49h-463v-1038z" />
<glyph unicode="g" horiz-adv-x="1427" d="M41 682q0 147 53 278.5t146.5 228.5t221.5 153.5t275 56.5q115 0 199 -22.5t141 -51.5q68 -33 113 -72l-248 -352q-37 33 -92 50.5t-109 17.5q-59 0 -108 -21.5t-85 -59.5t-56.5 -91.5t-20.5 -114.5t22.5 -114.5t61.5 -91.5t91 -59.5t112 -21.5q70 0 127 30t98 81h-123 v287h526v-455q-47 -84 -112.5 -152.5t-146 -118t-175 -76t-194.5 -26.5q-147 0 -278.5 55.5t-228.5 151.5t-153.5 227t-56.5 283zM233 682q0 -117 41 -213t113 -164.5t167 -107.5t204 -39q141 0 255.5 66.5t186.5 176.5v269h-217v-49h164v-205q-63 -94 -164.5 -149.5 t-224.5 -55.5q-98 0 -183.5 34t-150 96t-101 149.5t-36.5 191.5t35.5 191.5t98 149.5t146.5 96t183 34q37 0 69.5 -6t57.5 -12q29 -8 53 -17l33 47q-27 12 -60 21q-29 8 -67.5 14t-85.5 6q-109 0 -203 -39t-164 -107.5t-110 -164.5t-40 -213z" />
<glyph unicode="h" horiz-adv-x="1261" d="M72 0v1366h436v-465h244v465h438v-1366h-438v506h-244v-506h-436zM276 164h54v518h602v-518h53v1038h-53v-471h-602v471h-54v-1038z" />
<glyph unicode="i" horiz-adv-x="606" d="M72 0v1366h463v-1366h-463zM276 164h54v1038h-54v-1038z" />
<glyph unicode="j" horiz-adv-x="776" d="M0 0v328h150q66 0 88 24.5t22 69.5v944h449v-1020q0 -190 -87 -268t-278 -78h-344zM164 164h166q100 0 140 44t40 132v862h-53v-862q0 -63 -22.5 -95t-104.5 -32h-166v-49z" />
<glyph unicode="k" horiz-adv-x="1300" d="M72 0v1366h442v-315l258 315h535l-482 -625l506 -741h-526l-291 422v-422h-442zM276 164h54v276l213 265l372 -541h64l-399 584l366 454h-65l-551 -680v680h-54v-1038z" />
<glyph unicode="l" horiz-adv-x="903" d="M72 0v1366h454v-1008h377v-358h-831zM276 164h512v49h-458v989h-54v-1038z" />
<glyph unicode="m" horiz-adv-x="1574" d="M72 0v1366h360l356 -524l355 524h360v-1366h-436v492l-279 -410l-280 410v-492h-436zM276 164h54v940l458 -668l457 668v-940h53v1038h-53l-457 -674l-458 674h-54v-1038z" />
<glyph unicode="n" horiz-adv-x="1306" d="M72 0v1366h358l377 -526v526h428v-1366h-361l-374 524v-524h-428zM262 164h53v946l676 -946h53v1038h-53v-946l-676 946h-53v-1038z" />
<glyph unicode="o" d="M41 682q0 147 56.5 278.5t153.5 228.5t228 153.5t279 56.5q147 0 278 -56.5t228.5 -153.5t154 -228.5t56.5 -278.5t-56.5 -278.5t-154 -228.5t-228.5 -153.5t-278 -56.5t-278.5 56.5t-228.5 153.5t-153.5 228.5t-56.5 278.5zM233 682q0 -109 41 -204t113 -166.5 t167 -112.5t204 -41t204 41t166.5 112.5t112.5 166.5t41 204t-41 204t-112.5 166.5t-167 112.5t-203.5 41q-109 0 -204 -41t-167 -112.5t-113 -166.5t-41 -204zM287 682q0 98 36.5 183t101 149.5t149.5 101.5t184 37q98 0 183 -37t149.5 -101.5t101.5 -149.5t37 -183 t-37 -183t-101.5 -149.5t-149.5 -101.5t-183 -37t-183.5 37t-150 101.5t-101 149.5t-36.5 183zM471 682q0 -59 22.5 -111.5t61.5 -91.5t91 -61.5t112 -22.5q59 0 111.5 22.5t91 61.5t61 91.5t22.5 111.5t-22.5 111.5t-61 91.5t-91 61.5t-111.5 22.5t-111.5 -22.5 t-91.5 -61.5t-61.5 -91.5t-22.5 -111.5z" />
<glyph unicode="p" horiz-adv-x="1165" d="M72 0v1366h436q131 0 244.5 -28.5t198.5 -90t134.5 -161t49.5 -240.5t-49.5 -240.5t-134.5 -161t-198.5 -90t-244.5 -28.5v-326h-436zM276 164h54v325h178q92 0 171 21.5t136 64.5t89 111t32 160t-32 159.5t-89 110.5t-136 64.5t-171 21.5h-232v-1038zM330 539v614h178 q74 0 140.5 -15.5t117.5 -50t82 -94t31 -147.5t-31 -147.5t-82 -94.5t-117.5 -50t-140.5 -15h-178zM508 694h18q86 0 124 40t38 112t-38 111.5t-124 39.5h-18v-303z" />
<glyph unicode="q" d="M41 682q0 147 56.5 278.5t153.5 228.5t228 153.5t279 56.5q147 0 278 -56.5t228.5 -153.5t154 -228.5t56.5 -278.5q0 -88 -20.5 -170t-57.5 -154h127l-185 -358h-362q-109 -35 -219 -35q-147 0 -278.5 56.5t-228.5 153.5t-153.5 228.5t-56.5 278.5zM233 682 q0 -109 41 -204t113 -166.5t169 -112.5t210 -41h522l25 49h-334q68 31 123 80t95 110.5t62.5 134t22.5 150.5q0 109 -41 204t-112.5 166.5t-167 112.5t-203.5 41q-109 0 -204 -41t-167 -112.5t-113 -166.5t-41 -204zM287 682q0 98 36.5 183t101 149.5t149.5 101.5t184 37 q98 0 183 -37t149.5 -101.5t101.5 -149.5t37 -183t-37 -183t-101.5 -149.5t-149.5 -101.5t-183 -37t-183.5 37t-150 101.5t-101 149.5t-36.5 183zM471 682q0 -59 22.5 -111.5t61.5 -91.5t91 -61.5t112 -22.5q59 0 111.5 22.5t91 61.5t61 91.5t22.5 111.5t-22.5 111.5 t-61 91.5t-91 61.5t-111.5 22.5t-111.5 -22.5t-91.5 -61.5t-61.5 -91.5t-22.5 -111.5z" />
<glyph unicode="r" horiz-adv-x="1193" d="M72 0v1366h471q131 0 242.5 -35t193.5 -102.5t128 -166.5t46 -228q0 -102 -28.5 -174t-63.5 -119q-41 -53 -92 -90l256 -451h-512l-205 346v-346h-436zM276 164h54v311h168q80 0 155 17l195 -328h63l-204 344q111 39 176 120t65 210q0 90 -34.5 157.5t-95 113.5 t-142.5 69.5t-178 23.5h-222v-1038zM330 524v629h168q186 0 291.5 -82t105.5 -233q0 -152 -105.5 -233t-291.5 -81h-168zM508 694h22q78 0 132.5 35t54.5 117t-54.5 116.5t-132.5 34.5h-22v-303z" />
<glyph unicode="s" horiz-adv-x="921" d="M31 1006q0 96 34.5 169.5t96 123t144.5 75t177 25.5q49 0 98.5 -5t88.5 -10q45 -6 88 -12v-383q-16 2 -37 4q-16 2 -36.5 4t-43.5 2q-12 0 -30.5 -1t-35 -5t-28.5 -14t-12 -29q0 -16 27.5 -40.5t67.5 -57.5t88 -76t88 -98t67.5 -125t27.5 -156q0 -90 -28.5 -168.5 t-89 -137t-154.5 -92.5t-223 -34q-78 0 -144.5 7.5t-118.5 17.5q-59 10 -108 24v410q45 -14 94 -23q41 -10 93 -16t106 -6q94 0 94 70q0 27 -28.5 54t-73 61t-94.5 75t-94 94t-72.5 120t-28.5 153zM207 178q29 -6 61 -10q29 -4 60.5 -7t64.5 -3q57 0 111.5 13t97.5 44 t68.5 79t25.5 118q0 59 -29.5 112.5t-75.5 102.5t-98.5 94t-98.5 91t-75.5 92t-29.5 95q0 74 47 114t151 40q16 0 34 -1t34 -3t33 -2v53q-14 0 -31 2q-14 2 -31.5 3t-36.5 1q-111 0 -182 -50t-71 -157q0 -57 29.5 -107t75.5 -98.5t98.5 -93.5t98.5 -91t75.5 -95t29.5 -102 q0 -98 -66.5 -149.5t-183.5 -51.5q-70 0 -127 10q-31 4 -59 10v-53z" />
<glyph unicode="t" horiz-adv-x="954" d="M0 1008v358h954v-358h-252v-1008h-450v1008h-252zM158 1153h293v-989h53v989h293v49h-639v-49z" />
<glyph unicode="u" horiz-adv-x="1263" d="M66 498v868h436v-850q0 -72 29.5 -109.5t99.5 -37.5t99.5 37.5t29.5 109.5v850h438v-868q0 -135 -40 -235.5t-114.5 -166t-179 -98.5t-233.5 -33t-233.5 33t-178.5 98.5t-113.5 165.5t-39.5 236zM270 512q0 -172 93.5 -263t267.5 -91t268 91t94 263v690h-55v-690 q0 -301 -307 -301t-307 301v690h-54v-690z" />
<glyph unicode="v" horiz-adv-x="1337" d="M-41 1366h477l232 -594l233 594h477l-532 -1366h-354zM242 1202l405 -1038h43l406 1038h-58l-370 -944l-369 944h-57z" />
<glyph unicode="w" horiz-adv-x="1773" d="M-41 1366h463l158 -477l157 477h299l158 -477l158 477h463l-451 -1366h-340l-137 414l-137 -414h-340zM221 1202l342 -1038h51l273 858l272 -858h51l342 1038h-55l-311 -944l-299 944l-299 -944l-312 944h-55z" />
<glyph unicode="x" horiz-adv-x="1173" d="M-41 0l389 707l-362 659h477l123 -223l123 223h479l-363 -659l389 -707h-477l-151 272l-150 -272h-477zM256 164h61l269 487l268 -487h61l-299 543l273 495h-62l-241 -440l-242 440h-61l272 -495z" />
<glyph unicode="y" horiz-adv-x="1202" d="M-41 1366h485l158 -289l156 289h485l-424 -778v-588h-436v588zM276 1202l297 -549v-489h56v489l299 549h-64l-262 -485l-264 485h-62z" />
<glyph unicode="z" horiz-adv-x="1060" d="M-41 0l475 1008h-377l140 358h874l-475 -1008h448l-137 -358h-948zM240 164h561l20 49h-497l467 989h-488l-18 -49h422z" />
<glyph unicode="{" horiz-adv-x="714" d="M20 518v328h46q14 0 31.5 3t31.5 12t23.5 28.5t9.5 50.5v295q0 336 305 336h238v-346h-154q-18 0 -23.5 -11.5t-5.5 -23.5v-291q0 -66 -20.5 -107.5t-44.5 -66.5q-29 -29 -64 -43q35 -14 64 -43q25 -25 45 -67t20 -107v-291q0 -12 5 -23.5t24 -11.5h154v-346h-238 q-305 0 -305 336v295q0 31 -9.5 50.5t-23.5 28.5t-31.5 12t-31.5 3h-46zM156 616h26q20 0 46 -5t47.5 -20.5t36 -45t14.5 -78.5v-367q0 -68 32.5 -105.5t104.5 -37.5h106v49h-106q-84 0 -84 94v367q0 92 -47 139t-127 51v50q80 4 127 51t47 139v367q0 94 84 94h106v49h-106 q-72 0 -104.5 -38t-32.5 -105v-367q0 -49 -14.5 -79t-36 -45t-47 -20t-46.5 -5h-26v-132z" />
<glyph unicode="|" horiz-adv-x="438" d="M102 -53v1472h234v-1472h-234z" />
<glyph unicode="}" horiz-adv-x="714" d="M10 139h154q18 0 23.5 11.5t5.5 23.5v291q0 66 19 107.5t44 66.5q29 29 66 43q-37 14 -66 43q-25 25 -44 67t-19 107v291q0 12 -5.5 23.5t-23.5 11.5h-154v346h238q305 0 305 -336v-295q0 -31 9 -50.5t23.5 -28.5t32 -12t31.5 -3h45v-328h-45q-14 0 -31.5 -3t-32 -12 t-23.5 -28.5t-9 -50.5v-295q0 -336 -305 -336h-238v346zM145 6v-49h107q72 0 104.5 38t32.5 105v367q0 49 14.5 78.5t36 45t47 20.5t45.5 5h27v132h-27q-20 0 -45.5 5t-47 20t-36 45t-14.5 79v367q0 68 -32.5 105.5t-104.5 37.5h-107v-49h107q84 0 84 -94v-367 q0 -92 47 -139t127 -51v-50q-80 -4 -127 -51t-47 -139v-367q0 -94 -84 -94h-107z" />
<glyph unicode="~" horiz-adv-x="1046" d="M51 602q0 201 78 292t215 91q66 0 117 -21.5t92 -48t75 -48t64 -21.5q37 0 63.5 28.5t26.5 102.5h213q0 -201 -77.5 -292t-215.5 -91q-66 0 -116.5 21.5t-91.5 48t-75 48t-65 21.5q-37 0 -63.5 -28.5t-26.5 -102.5h-213z" />
<glyph unicode="&#xa1;" horiz-adv-x="589" d="M61 0h467l-69 963h-328zM76 1024h438v342h-438v-342zM199 1171v48h192v-48h-192zM270 152v682h49v-682h-49z" />
<glyph unicode="&#xa2;" horiz-adv-x="782" d="M20 944q0 147 76 257t201 159v174h340v-164q74 -23 106 -43q10 -6 20.5 -12t18.5 -12l-147 -261q-10 8 -21.5 14.5t-21.5 12.5q-20 10 -49 18.5t-64 8.5q-59 0 -105 -40t-46 -112t46 -111.5t105 -39.5q35 0 63.5 8t49.5 18q10 4 21.5 11.5t21.5 15.5l147 -260 q-8 -6 -18 -12.5t-21 -12.5q-18 -10 -45.5 -21.5t-60.5 -21.5v-164h-340v174q-125 47 -201 158t-76 258zM143 944q0 -68 23.5 -125t63.5 -101t94.5 -72t117.5 -34v-155h50v153q33 0 60.5 6.5t47.5 12.5l43 18l-27 45l-16 -8t-18 -8q-37 -14 -101 -14q-66 0 -118 21.5 t-88.5 60t-57 90t-20.5 110.5t20.5 110.5t57 90.5t89 60.5t117.5 21.5q33 0 58.5 -5t42.5 -12l34 -14l27 45l-43 16q-20 6 -48 12.5t-60 8.5v154h-50v-156q-63 -6 -117.5 -35t-94.5 -73t-63.5 -102.5t-23.5 -121.5z" />
<glyph unicode="&#xa3;" horiz-adv-x="1042" d="M-20 444l86 422h129l34 170q35 168 146.5 265.5t302.5 97.5q74 0 139.5 -23.5t116.5 -52.5q29 -16 56.5 -35.5t53.5 -40.5l-215 -301q-18 18 -36 29q-16 10 -40 19.5t-51 9.5q-74 0 -96 -115l-4 -23h193l-88 -422h-191l-16 -86h553l-129 -358h-908l93 444h-129zM133 553 h172l-78 -389h590l19 49h-541l67 340h238l10 47h-237l22 111h238l10 47h-240l35 168q27 129 81 185t147 56q86 0 147 -43l31 45q-23 14 -49 25q-23 10 -55.5 17.5t-73.5 7.5q-117 0 -183.5 -66t-95.5 -207l-39 -188h-176l-10 -47h176l-23 -111h-174z" />
<glyph unicode="&#xa4;" horiz-adv-x="1007" d="M61 401l113 113q-41 78 -41 172q0 92 41 170l-113 115l158 157l113 -114q39 20 82 31.5t90 11.5t89 -11.5t81 -31.5l114 114l158 -157l-115 -115q20 -39 31.5 -81t11.5 -89t-11 -90t-32 -82l115 -113l-158 -157l-114 112q-78 -41 -170 -41q-94 0 -172 41l-113 -112z M260 686q0 -51 19.5 -95t52.5 -77t77 -52.5t95 -19.5t95 19.5t77 52.5t52.5 77t19.5 95t-19.5 95t-52.5 77t-77 52.5t-95 19.5t-95 -19.5t-77 -52.5t-52.5 -77t-19.5 -95zM309 686q0 39 15.5 75t42 62.5t61.5 42t76 15.5q39 0 74.5 -15.5t62.5 -42t42 -62.5t15 -75 q0 -41 -15 -76t-42 -61.5t-62.5 -41.5t-74.5 -15q-41 0 -76 15t-61.5 41.5t-42 61.5t-15.5 76zM444 686q0 -25 17.5 -42t42.5 -17t42 17.5t17 41.5q0 25 -17.5 42t-41.5 17q-25 0 -42.5 -17t-17.5 -42z" />
<glyph unicode="&#xa5;" horiz-adv-x="1140" d="M-41 1366h475l139 -289l138 289h471l-228 -451h70v-471h-236v-444h-434v444h-237v471h69zM258 575h287v-411h53v411h285v50h-285v41l35 69h250v49h-226l209 418h-59l-234 -481l-235 481h-62l209 -418h-227v-49h252l35 -67v-43h-287v-50z" />
<glyph unicode="&#xa6;" horiz-adv-x="438" d="M102 -53v659h234v-659h-234zM102 760v659h234v-659h-234z" />
<glyph unicode="&#xa7;" horiz-adv-x="923" d="M31 539q0 66 17.5 121t49.5 100q-31 47 -49 103.5t-18 123.5q0 190 118.5 301t339.5 111q49 0 97.5 -5t87.5 -10l84 -12v-383l-47 4q-20 2 -44 4t-46 2q-12 0 -31 -1t-35 -6t-27.5 -16t-11.5 -32q0 -18 28.5 -38.5t71.5 -47.5t93.5 -61.5t93.5 -81.5t71.5 -108.5 t28.5 -139.5q0 -129 -72 -225q31 -47 50.5 -98.5t19.5 -110.5q0 -90 -30.5 -169t-93 -137.5t-159 -92t-225.5 -33.5q-78 0 -143.5 7t-112.5 17q-57 10 -102 25v409q23 -8 47 -13t51 -9q90 -23 203 -23q92 0 92 62q0 23 -29.5 41t-73.5 41.5t-95.5 53.5t-95.5 75t-73.5 105.5 t-29.5 146.5zM207 -131v-53q27 -8 49 -11q27 -4 54.5 -7t60.5 -3q55 0 112.5 13.5t105.5 42t77.5 76.5t29.5 120q0 80 -46 136.5t-107 101.5q18 8 44.5 24.5t51.5 42t41 62.5t16 88q0 55 -30.5 100t-75.5 85t-98.5 76t-98.5 71.5t-75.5 75.5t-30.5 89q0 74 50 117t155 43 q16 0 33.5 -1t31.5 -3q10 -2 31 -2v47q-18 0 -29 2q-12 2 -29.5 3t-35.5 1q-109 0 -183.5 -50t-74.5 -157q0 -78 49 -131t114 -100q-16 -6 -43.5 -21.5t-54.5 -41t-46 -64.5t-19 -94q0 -57 29.5 -101.5t75.5 -81t98.5 -69.5t98.5 -69t75.5 -79t29.5 -100q0 -53 -21.5 -91 t-59.5 -62.5t-87 -36t-104 -11.5q-68 0 -119 11zM289 547q0 49 17.5 83t42 55.5t51 33.5t44.5 18q37 -27 73 -53.5t63.5 -54t45 -59t17.5 -68.5q0 -49 -19.5 -83t-44 -55.5t-49 -31.5t-36.5 -13q-37 25 -74 49.5t-65.5 51t-47 57.5t-18.5 70z" />
<glyph unicode="&#xa8;" horiz-adv-x="716" d="M51 1057v207h262v-207h-262zM137 1139h90v43h-90v-43zM403 1057v207h263v-207h-263zM489 1139h91v43h-91v-43z" />
<glyph unicode="&#xa9;" d="M41 682q0 147 56.5 278.5t153.5 228.5t228 153.5t279 56.5q147 0 278 -56.5t228.5 -153.5t154 -228.5t56.5 -278.5t-56.5 -278.5t-154 -228.5t-228.5 -153.5t-278 -56.5t-278.5 56.5t-228.5 153.5t-153.5 228.5t-56.5 278.5zM117 682q0 -133 50 -250t137 -204t204 -137 t250 -50t249.5 50t203.5 137t137.5 204t50.5 250t-50.5 250t-137.5 204t-203.5 137t-249.5 50t-250 -50t-204 -137t-137 -204t-50 -250zM346 670q0 98 35 178t94.5 135t138 86t166.5 31q70 0 124 -14.5t93 -30.5q45 -23 80 -43l-125 -219q-10 8 -21 15t-24 13 q-23 10 -52.5 19.5t-66.5 9.5q-76 0 -130 -50t-54 -130t56.5 -130.5t134.5 -50.5q39 0 70.5 9.5t54.5 21.5q25 16 45 33l125 -219q-16 -14 -37 -25.5t-43 -21.5q-39 -18 -94.5 -32.5t-127.5 -14.5q-96 0 -177 30.5t-139 88t-92 136.5t-34 175z" />
<glyph unicode="&#xaa;" horiz-adv-x="849" d="M-31 477l336 889h238l338 -889h-301l-23 60h-266l-23 -60h-299zM143 584h58l24 65h398l24 -65h60l-256 676h-52zM244 698l180 478l180 -478h-360zM381 774h86l-43 115z" />
<glyph unicode="&#xab;" horiz-adv-x="1085" d="M0 465l270 463h344l-249 -463l249 -465h-344zM156 465l206 -369h54l-207 369l207 366h-54zM451 465l270 463h344l-250 -463l250 -465h-344zM606 465l207 -369h53l-207 369l207 366h-53z" />
<glyph unicode="&#xac;" horiz-adv-x="1091" d="M61 504v338h969v-666h-340v328h-629zM184 649h652v-350h49v397h-701v-47z" />
<glyph unicode="&#xad;" horiz-adv-x="643" d="M51 512v342h541v-342h-541zM176 659h295v48h-295v-48z" />
<glyph unicode="&#xae;" horiz-adv-x="1220" d="M31 819q0 119 46 225.5t124 184.5t183 124t226 46q119 0 225.5 -46t184.5 -124t124 -184.5t46 -225.5q0 -121 -46 -226.5t-124 -183t-184.5 -123.5t-225.5 -46q-121 0 -226 46t-183 123.5t-124 183t-46 226.5zM106 819q0 -104 40 -196.5t108 -160t160 -107.5t196 -40 t196.5 40t160 107.5t107.5 160t40 196.5t-40 196.5t-107.5 160t-159.5 107.5t-197 40q-104 0 -196 -40t-160 -107.5t-108 -160t-40 -196.5zM395 514v614h211q119 0 197 -57t78 -174q0 -47 -13.5 -78t-29.5 -53q-25 -27 -43 -41l118 -211h-204l-95 176h-32v-176h-187z M582 819h26q35 0 59.5 19.5t24.5 56.5t-24.5 56.5t-59.5 19.5h-26v-152z" />
<glyph unicode="&#xaf;" horiz-adv-x="675" d="M51 1057v203h574v-203h-574zM137 1139h389v39h-389v-39z" />
<glyph unicode="&#xb0;" horiz-adv-x="704" d="M31 1077q0 68 25.5 126.5t68.5 101.5t101.5 68.5t125.5 25.5q68 0 126.5 -25.5t101.5 -68.5t68.5 -101.5t25.5 -126.5t-25.5 -126t-68.5 -101t-101.5 -68.5t-126.5 -25.5t-126 25.5t-101 68.5t-68.5 101.5t-25.5 125.5zM141 1077q0 -43 16.5 -82t45 -67.5t67.5 -45 t82 -16.5t82 16.5t67.5 45t45 67.5t16.5 82t-16.5 82t-45 67.5t-67.5 45t-82 16.5t-82 -16.5t-67.5 -45t-45 -67.5t-16.5 -82zM186 1077q0 70 48.5 118t117.5 48q70 0 118 -48t48 -118t-48 -118t-118 -48t-118 48t-48 118zM301 1077q0 -51 51 -51t51 51t-51 51t-51 -51z" />
<glyph unicode="&#xb1;" horiz-adv-x="942" d="M41 0v340h860v-340h-860zM41 477v340h260v260h340v-260h260v-340h-260v-260h-340v260h-260zM164 145h614v50h-614v-50zM164 623h282v-283h50v283h282v49h-282v282h-50v-282h-282v-49z" />
<glyph unicode="&#xb2;" horiz-adv-x="471" d="M-41 614l188 361q23 45 31 67.5t8 42.5q0 76 -92 76q-10 0 -18 -1t-15 -1q-8 -2 -14 -2v209q14 2 33 4q16 2 34.5 4t39.5 2q53 0 106 -11t95 -39t68 -73t26 -110q0 -59 -28 -124t-85 -177l-17 -31h142l-64 -197h-438zM106 705h230l14 32h-184l123 236q20 37 33.5 73.5 t13.5 77.5q0 78 -48 116t-124 38q-4 0 -6 -1t-6 -1h-7v-35h7q4 0 6 1t6 1q59 0 96 -29.5t37 -89.5q0 -41 -13.5 -72.5t-31.5 -68.5z" />
<glyph unicode="&#xb3;" horiz-adv-x="442" d="M10 606v209q12 -2 22.5 -2h20.5q72 0 99.5 26.5t27.5 61.5q0 25 -16.5 45.5t-40 37.5t-51 31.5t-47.5 24.5q39 25 77.5 54.5t38.5 54.5q0 20 -14 27.5t-37 7.5q-16 0 -30.5 -2t-24.5 -4q-12 -4 -25 -7v195q20 2 45 4q20 2 48 3t61 1q111 0 168 -50t57 -130 q0 -29 -11 -52.5t-24 -39.5q-14 -20 -32 -37q27 -23 49 -51q18 -25 34.5 -62t16.5 -82q0 -70 -28.5 -120t-77 -81.5t-112 -47t-132.5 -15.5h-62zM92 696h12q86 0 149.5 46t63.5 139q0 53 -23.5 91t-84.5 85q41 37 58.5 65.5t17.5 59.5q0 47 -34 72.5t-93 25.5 q-12 0 -23.5 -1t-19.5 -1q-10 -2 -19 -2v-33q8 0 17 2q8 0 19 1t26 1q39 0 63.5 -16.5t24.5 -50.5q0 -35 -28 -65t-66 -62q66 -47 96.5 -83t30.5 -89q0 -76 -51.5 -113t-123.5 -37h-12v-35z" />
<glyph unicode="&#xb4;" horiz-adv-x="542" d="M51 1057l170 317h271l-211 -317h-230zM190 1139h43l101 153h-62z" />
<glyph unicode="&#xb5;" horiz-adv-x="1003" d="M61 -326v1223h394v-487q0 -61 47 -62q47 0 47 62v487h393v-897h-305v29l-33 -17q-16 -6 -39.5 -11t-54.5 -5q-49 0 -80 10q-10 2 -22 10v-342h-347zM246 -162h45v430q14 -35 45 -65q25 -25 65.5 -44.5t100.5 -19.5q59 0 100 19.5t66 44.5q31 31 45 65v-104h45v569h-45 v-307q0 -104 -55.5 -173t-155.5 -69t-155.5 69t-55.5 173v307h-45v-895z" />
<glyph unicode="&#xb6;" horiz-adv-x="1320" d="M31 846q0 123 41 219t116.5 162.5t184 102.5t243.5 36h644v-1761h-644v721q-135 0 -243.5 35.5t-184 102t-116.5 163t-41 219.5zM229 846q0 -78 26 -142.5t75 -112.5t121.5 -75t164.5 -27h179v-720h53v1384h178v-1384h53v1433h-463q-92 0 -164.5 -26.5t-121.5 -74.5 t-75 -113.5t-26 -141.5zM287 846q0 147 91 227t238 80h179v-614h-179q-147 0 -238 80t-91 227zM477 846q0 -72 36 -112t103 -40v303q-68 0 -103.5 -39.5t-35.5 -111.5z" />
<glyph unicode="&#xb7;" horiz-adv-x="561" d="M61 512v342h439v-342h-439zM186 659h193v48h-193v-48z" />
<glyph unicode="&#xb8;" horiz-adv-x="636" d="M51 -508l41 158l45 -12q23 -4 47.5 -7.5t53.5 -3.5q53 0 87.5 20.5t34.5 61.5t-33.5 57.5t-76.5 16.5q-16 0 -31.5 -2t-28.5 -4l-26 -4l115 227h153l-49 -98q53 -2 100 -25q39 -18 71 -58t32 -112q0 -39 -14.5 -81t-51.5 -77.5t-98.5 -58t-153.5 -22.5q-47 0 -86 4t-67 8 zM365 -430q37 6 67 24q25 16 46.5 43t21.5 74q0 43 -20.5 67.5t-43.5 35.5q-31 14 -63 16q25 -6 43 -20q16 -12 30.5 -38t14.5 -67t-15.5 -66.5t-33.5 -41.5q-18 -17 -47 -27z" />
<glyph unicode="&#xb9;" horiz-adv-x="356" d="M-31 1192l166 174h180v-752h-243v459zM80 1182l22 -25l68 72v-524h39v573h-37z" />
<glyph unicode="&#xba;" horiz-adv-x="1034" d="M51 928q0 96 37 181t99.5 148.5t147.5 100.5t181 37t181 -37t148.5 -100.5t100.5 -148.5t37 -181t-37 -181t-100.5 -147.5t-148.5 -99.5t-181 -37t-181 37t-147.5 99.5t-99.5 147.5t-37 181zM176 928q0 -72 26.5 -133.5t73 -107.5t107.5 -72.5t133 -26.5q70 0 132.5 26.5 t109.5 72.5t73.5 107.5t26.5 133.5q0 70 -26.5 132t-73.5 109.5t-109.5 74t-132.5 26.5q-72 0 -133 -26.5t-107.5 -74t-73 -109.5t-26.5 -132zM229 928q0 59 22.5 112.5t61.5 92t91.5 61.5t111.5 23t112.5 -23t92.5 -61.5t61.5 -92t22.5 -112.5t-22.5 -111.5t-61.5 -91.5 t-92.5 -61.5t-112.5 -22.5t-111.5 22.5t-91.5 61.5t-61.5 91.5t-22.5 111.5zM352 928q0 -68 48.5 -116t115.5 -48q68 0 116 48t48 116t-48 116t-116 48t-116 -48t-48 -116z" />
<glyph unicode="&#xbb;" horiz-adv-x="1085" d="M20 0l250 465l-250 463h345l270 -463l-270 -465h-345zM219 96h53l207 369l-207 366h-53l207 -366zM471 0l250 465l-250 463h344l270 -463l-270 -465h-344zM670 96h53l207 369l-207 366h-53l207 -366z" />
<glyph unicode="&#xbc;" horiz-adv-x="1034" d="M-20 1192l165 174h181v-752h-244v459zM90 1182l23 -25l67 72v-524h39v573h-37zM119 0l543 1366h233l-543 -1366h-233zM256 98h37l465 1170h-37zM489 104v91l299 557h191v-437h45v-211h-45v-104h-234v104h-256zM598 193h236v-103h38v103h50v34h-50v437h-20zM659 227 l175 326v-326h-175z" />
<glyph unicode="&#xbd;" horiz-adv-x="1122" d="M-20 1192l165 174h181v-752h-244v459zM90 1182l23 -25l67 72v-524h39v573h-37zM119 0l543 1366h233l-543 -1366h-233zM256 98h37l465 1170h-37zM600 0l188 360q23 45 31 68t8 43q0 76 -92 76q-10 0 -18 -1t-15 -1q-8 -2 -14 -2v209q14 2 33 4q16 2 34.5 4t39.5 2 q53 0 106 -11.5t95 -39t68 -72.5t26 -111q0 -59 -28 -123.5t-85 -177.5l-16 -30h141l-64 -197h-438zM748 90h229l14 33h-184l123 235q20 37 33.5 74t13.5 78q0 78 -48 116t-124 38q-4 0 -6 -1t-6 -1h-7v-35h7q4 0 6 1t6 1q59 0 96 -30t37 -89q0 -41 -13.5 -72.5t-31.5 -68.5 z" />
<glyph unicode="&#xbe;" horiz-adv-x="1075" d="M20 606v209q12 -2 22.5 -2h20.5q72 0 99.5 26.5t27.5 61.5q0 25 -16 45.5t-39.5 37.5t-51.5 31.5t-48 24.5q39 25 78 54.5t39 54.5q0 20 -14.5 27.5t-37.5 7.5q-16 0 -30.5 -2t-24.5 -4q-12 -4 -25 -7v195q20 2 46 4q20 2 47.5 3t60.5 1q111 0 168 -50t57 -130 q0 -29 -11 -52.5t-23 -39.5q-14 -20 -33 -37q27 -23 49 -51q18 -25 34.5 -62t16.5 -82q0 -70 -28.5 -120t-76.5 -81.5t-111.5 -47t-133.5 -15.5h-62zM102 696h13q86 0 149.5 46t63.5 139q0 53 -23.5 91t-85.5 85q41 37 58.5 65.5t17.5 59.5q0 47 -34 72.5t-93 25.5 q-12 0 -23.5 -1t-19.5 -1q-10 -2 -19 -2v-33q8 0 17 2q8 0 19.5 1t25.5 1q39 0 63.5 -16.5t24.5 -50.5q0 -35 -27.5 -65t-66.5 -62q66 -47 96.5 -83t30.5 -89q0 -76 -51.5 -113t-122.5 -37h-13v-35zM160 0l542 1366h234l-543 -1366h-233zM297 98h37l465 1170h-37zM530 104 v91l299 557h191v-437h45v-211h-45v-104h-234v104h-256zM639 193h235v-103h39v103h50v34h-50v437h-20zM700 227l174 326v-326h-174z" />
<glyph unicode="&#xbf;" horiz-adv-x="782" d="M30 387q0 90 36 163t79 140.5t79 133t36 139.5h436q0 -96 -28.5 -166t-63.5 -124.5t-63.5 -97.5t-28.5 -86q0 -39 16 -62.5t43 -36.5t62.5 -17t74.5 -4h43v-381q-37 -6 -64.5 -10.5t-50 -6.5t-44 -3t-50.5 -1q-117 0 -211 30t-160.5 85t-103.5 133t-37 172zM254 410 q0 -111 69.5 -178.5t216.5 -67.5h54v49h-54q-47 0 -90 11.5t-75.5 35t-52 61t-19.5 89.5q0 59 26.5 117.5t58.5 113.5t58.5 104.5t26.5 88.5h-49q0 -37 -27 -86.5t-58.5 -105.5t-58 -115.5t-26.5 -116.5zM258 1024v342h438v-342h-438zM381 1171h192v48h-192v-48z" />
<glyph unicode="&#xc0;" horiz-adv-x="1282" d="M-41 0l518 1366h328l518 -1366h-430l-45 123h-414l-45 -123h-430zM207 164h57l39 102h676l39 -102h57l-395 1038h-78zM299 1763h271l170 -317h-230zM322 315l319 838l320 -838h-639zM457 1681l100 -153h43l-82 153h-61zM549 424h184l-92 240z" />
<glyph unicode="&#xc1;" horiz-adv-x="1282" d="M-41 0l518 1366h328l518 -1366h-430l-45 123h-414l-45 -123h-430zM207 164h57l39 102h676l39 -102h57l-395 1038h-78zM322 315l319 838l320 -838h-639zM545 1446l170 317h271l-211 -317h-230zM549 424h184l-92 240zM684 1528h43l101 153h-62z" />
<glyph unicode="&#xc2;" horiz-adv-x="1282" d="M-41 0l518 1366h328l518 -1366h-430l-45 123h-414l-45 -123h-430zM207 164h57l39 102h676l39 -102h57l-395 1038h-78zM319 1446l170 317h299l170 -317h-233l-86 145l-86 -145h-234zM322 315l319 838l320 -838h-639zM456 1528h52l59 110h141l62 -110h51l-84 153h-197z M549 424h184l-92 240z" />
<glyph unicode="&#xc3;" horiz-adv-x="1282" d="M-41 0l518 1366h328l518 -1366h-430l-45 123h-414l-45 -123h-430zM207 164h57l39 102h676l39 -102h57l-395 1038h-78zM313 1446q0 147 59.5 210.5t153.5 63.5q37 0 71 -10t61.5 -22.5t49 -22.5t37.5 -10q47 0 47 65h175q0 -147 -59.5 -210.5t-153.5 -63.5q-37 0 -71 10 t-61.5 21.5t-50 21.5t-37.5 10q-47 0 -47 -63h-174zM322 315l319 838l320 -838h-639zM414 1524q6 23 20 36q12 14 33.5 26.5t58.5 12.5q33 0 59.5 -11t53 -24.5t54.5 -24.5t61 -11q39 0 60 17.5t34 39.5q12 25 18 59q-8 -27 -20 -38q-12 -16 -35 -27.5t-57 -11.5 q-29 0 -55.5 11t-55.5 24.5t-57.5 24.5t-59.5 11q-39 0 -61.5 -17.5t-32.5 -39.5q-16 -24 -18 -57zM549 424h184l-92 240z" />
<glyph unicode="&#xc4;" horiz-adv-x="1282" d="M-41 0l518 1366h328l518 -1366h-430l-45 123h-414l-45 -123h-430zM207 164h57l39 102h676l39 -102h57l-395 1038h-78zM322 315l319 838l320 -838h-639zM334 1446v207h262v-207h-262zM420 1528h90v43h-90v-43zM549 424h184l-92 240zM686 1446v207h263v-207h-263zM772 1528 h91v43h-91v-43z" />
<glyph unicode="&#xc5;" horiz-adv-x="1282" d="M-41 0l518 1366h328l518 -1366h-430l-45 123h-414l-45 -123h-430zM207 164h57l39 102h676l39 -102h57l-395 1038h-78zM322 315l319 838l320 -838h-639zM381 1671q0 53 20.5 100.5t55.5 83t82 56t100 20.5t100.5 -20.5t83 -56t56 -83t20.5 -100.5t-20.5 -100t-56 -82 t-83 -55.5t-100.5 -20.5t-100 20.5t-82 55.5t-55.5 82t-20.5 100zM463 1671q0 -74 51.5 -125t124.5 -51q74 0 126 51t52 125t-52 126t-126 52t-125 -52t-51 -126zM502 1671q0 59 39 99t98 40t99.5 -40t40.5 -99t-40 -98t-100 -39q-59 0 -98 39t-39 98zM549 424h184l-92 240z M584 1671q0 -23 16.5 -39t38.5 -16q23 0 40.5 16.5t17.5 38.5q0 23 -17.5 40t-40.5 17t-39 -17t-16 -40z" />
<glyph unicode="&#xc6;" horiz-adv-x="1800" d="M-41 0l518 1366h328l125 -332v332h805v-358h-369v-152h363v-340h-363v-158h383v-358h-856l-45 123h-414l-45 -123h-430zM207 164h57l39 102h676l39 -102h57l-395 1038h-78zM322 315l319 838l320 -838h-639zM549 424h184l-92 240zM1135 164h462v49h-409v449h389v49h-389 v442h409v49h-462v-1038z" />
<glyph unicode="&#xc7;" horiz-adv-x="1257" d="M41 682q0 164 57.5 296t155.5 226t229 144.5t279 50.5q117 0 208 -22.5t156 -51.5q39 -16 71 -33.5t60 -38.5l-215 -379q-16 12 -33.5 24.5t-37.5 23.5q-35 16 -83 31.5t-110 15.5q-63 0 -116.5 -22.5t-93.5 -61.5t-62.5 -91.5t-22.5 -111.5t23.5 -111.5t64.5 -91.5 t96.5 -61.5t120.5 -22.5q66 0 117 16.5t86 37.5q39 20 72 53l215 -379q-59 -45 -129 -78q-63 -29 -152.5 -53.5t-205.5 -26.5l-31 -63q53 -2 100 -25q39 -18 71 -58t32 -112q0 -39 -14.5 -81t-51.5 -77.5t-98.5 -58t-153.5 -22.5q-47 0 -86 4t-67 8l-64 12l41 158l45 -12 q23 -4 47.5 -7.5t52.5 -3.5q53 0 88 20.5t35 61.5t-33.5 57.5t-76.5 16.5q-16 0 -31.5 -2t-28.5 -4l-26 -4l102 202q-133 20 -243.5 80t-190.5 152t-124 213t-44 262zM246 682q0 -121 42 -217t115.5 -165t172 -105.5t208.5 -36.5q61 0 110.5 10t84.5 22q41 16 70 33l-29 49 q-29 -18 -62 -30q-31 -12 -73.5 -21.5t-100.5 -9.5q-113 0 -202.5 37t-152 100.5t-96.5 149.5t-34 184t34 184t95 149.5t149.5 100.5t196.5 37q53 0 95 -7t71 -18q35 -10 59 -24l29 49q-16 8 -33.5 14.5t-36.5 12.5q-35 10 -79.5 18t-104.5 8q-104 0 -199.5 -36.5 t-168 -105.5t-116.5 -166t-44 -216zM743 -430q4 0 26 6t45.5 21.5t43 43t19.5 70.5q0 41 -18.5 64.5t-41 36t-43 15.5t-22.5 3q2 0 16 -5t29.5 -18.5t28 -38t12.5 -63.5q0 -37 -13.5 -62.5t-30 -41t-31.5 -22.5t-20 -9z" />
<glyph unicode="&#xc8;" horiz-adv-x="942" d="M72 0v1366h805v-358h-369v-152h362v-340h-362v-158h383v-358h-819zM149 1763h271l170 -317h-230zM276 164h463v49h-409v449h389v49h-389v442h409v49h-463v-1038zM307 1681l100 -153h43l-82 153h-61z" />
<glyph unicode="&#xc9;" horiz-adv-x="942" d="M72 0v1366h805v-358h-369v-152h362v-340h-362v-158h383v-358h-819zM276 164h463v49h-409v449h389v49h-389v442h409v49h-463v-1038zM354 1446l170 317h271l-211 -317h-230zM493 1528h43l101 153h-62z" />
<glyph unicode="&#xca;" horiz-adv-x="942" d="M72 0v1366h805v-358h-369v-152h362v-340h-362v-158h383v-358h-819zM149 1446l170 317h299l170 -317h-233l-86 145l-86 -145h-234zM276 164h463v49h-409v449h389v49h-389v442h409v49h-463v-1038zM286 1528h52l59 110h141l62 -110h51l-84 153h-197z" />
<glyph unicode="&#xcb;" horiz-adv-x="942" d="M72 0v1366h805v-358h-369v-152h362v-340h-362v-158h383v-358h-819zM164 1446v207h262v-207h-262zM250 1528h90v43h-90v-43zM276 164h463v49h-409v449h389v49h-389v442h409v49h-463v-1038zM516 1446v207h263v-207h-263zM602 1528h91v43h-91v-43z" />
<glyph unicode="&#xcc;" horiz-adv-x="606" d="M10 1763h271l170 -317h-230zM72 0v1366h463v-1366h-463zM168 1681l100 -153h43l-82 153h-61zM276 164h54v1038h-54v-1038z" />
<glyph unicode="&#xcd;" horiz-adv-x="606" d="M72 0v1366h463v-1366h-463zM166 1446l170 317h271l-211 -317h-230zM276 164h54v1038h-54v-1038zM305 1528h43l101 153h-62z" />
<glyph unicode="&#xce;" horiz-adv-x="606" d="M-8 1446l170 317h299l170 -317h-233l-86 145l-86 -145h-234zM72 0v1366h463v-1366h-463zM129 1528h52l59 110h141l62 -110h51l-84 153h-197zM276 164h54v1038h-54v-1038z" />
<glyph unicode="&#xcf;" horiz-adv-x="606" d="M4 1446v207h262v-207h-262zM72 0v1366h463v-1366h-463zM90 1528h90v43h-90v-43zM276 164h54v1038h-54v-1038zM356 1446v207h263v-207h-263zM442 1528h91v43h-91v-43z" />
<glyph unicode="&#xd0;" horiz-adv-x="1300" d="M0 545v317h72v504h379q193 0 343 -43t253.5 -129t158 -214t54.5 -296t-54.5 -296t-158 -214t-254 -130t-342.5 -44h-379v545h-72zM104 672h172v-508h175q299 0 451.5 136t152.5 384t-152.5 383t-451.5 135h-175v-485h-172v-45zM330 213v459h229v45h-229v436h121 q260 0 404 -117.5t144 -351.5q0 -233 -144 -352t-404 -119h-121zM508 389q154 0 237.5 73t83.5 222q0 150 -83.5 221.5t-237.5 71.5v-115h188v-317h-188v-156z" />
<glyph unicode="&#xd1;" horiz-adv-x="1306" d="M72 0v1366h358l377 -526v526h428v-1366h-361l-374 524v-524h-428zM262 164h53v946l676 -946h53v1038h-53v-946l-676 946h-53v-1038zM325 1446q0 147 59.5 210.5t153.5 63.5q37 0 71 -10t61.5 -22.5t49 -22.5t37.5 -10q47 0 47 65h175q0 -147 -59.5 -210.5t-153.5 -63.5 q-37 0 -71 10t-61.5 21.5t-50 21.5t-37.5 10q-47 0 -47 -63h-174zM426 1524q6 23 20 36q12 14 33.5 26.5t58.5 12.5q33 0 59.5 -11t53 -24.5t54.5 -24.5t61 -11q39 0 60 17.5t34 39.5q12 25 18 59q-8 -27 -20 -38q-12 -16 -35 -27.5t-57 -11.5q-29 0 -55.5 11t-55.5 24.5 t-57.5 24.5t-59.5 11q-39 0 -61.5 -17.5t-32.5 -39.5q-16 -24 -18 -57z" />
<glyph unicode="&#xd2;" d="M41 682q0 147 56.5 278.5t153.5 228.5t228 153.5t279 56.5q147 0 278 -56.5t228.5 -153.5t154 -228.5t56.5 -278.5t-56.5 -278.5t-154 -228.5t-228.5 -153.5t-278 -56.5t-278.5 56.5t-228.5 153.5t-153.5 228.5t-56.5 278.5zM233 682q0 -109 41 -204t113 -166.5 t167 -112.5t204 -41t204 41t166.5 112.5t112.5 166.5t41 204t-41 204t-112.5 166.5t-167 112.5t-203.5 41q-109 0 -204 -41t-167 -112.5t-113 -166.5t-41 -204zM287 682q0 98 36.5 183t101 149.5t149.5 101.5t184 37q98 0 183 -37t149.5 -101.5t101.5 -149.5t37 -183 t-37 -183t-101.5 -149.5t-149.5 -101.5t-183 -37t-183.5 37t-150 101.5t-101 149.5t-36.5 183zM457 1763h271l170 -317h-230zM471 682q0 -59 22.5 -111.5t61.5 -91.5t91 -61.5t112 -22.5q59 0 111.5 22.5t91 61.5t61 91.5t22.5 111.5t-22.5 111.5t-61 91.5t-91 61.5 t-111.5 22.5t-111.5 -22.5t-91.5 -61.5t-61.5 -91.5t-22.5 -111.5zM615 1681l100 -153h43l-82 153h-61z" />
<glyph unicode="&#xd3;" d="M41 682q0 147 56.5 278.5t153.5 228.5t228 153.5t279 56.5q147 0 278 -56.5t228.5 -153.5t154 -228.5t56.5 -278.5t-56.5 -278.5t-154 -228.5t-228.5 -153.5t-278 -56.5t-278.5 56.5t-228.5 153.5t-153.5 228.5t-56.5 278.5zM233 682q0 -109 41 -204t113 -166.5 t167 -112.5t204 -41t204 41t166.5 112.5t112.5 166.5t41 204t-41 204t-112.5 166.5t-167 112.5t-203.5 41q-109 0 -204 -41t-167 -112.5t-113 -166.5t-41 -204zM287 682q0 98 36.5 183t101 149.5t149.5 101.5t184 37q98 0 183 -37t149.5 -101.5t101.5 -149.5t37 -183 t-37 -183t-101.5 -149.5t-149.5 -101.5t-183 -37t-183.5 37t-150 101.5t-101 149.5t-36.5 183zM471 682q0 -59 22.5 -111.5t61.5 -91.5t91 -61.5t112 -22.5q59 0 111.5 22.5t91 61.5t61 91.5t22.5 111.5t-22.5 111.5t-61 91.5t-91 61.5t-111.5 22.5t-111.5 -22.5 t-91.5 -61.5t-61.5 -91.5t-22.5 -111.5zM620 1446l170 317h271l-211 -317h-230zM759 1528h43l101 153h-62z" />
<glyph unicode="&#xd4;" d="M41 682q0 147 56.5 278.5t153.5 228.5t228 153.5t279 56.5q147 0 278 -56.5t228.5 -153.5t154 -228.5t56.5 -278.5t-56.5 -278.5t-154 -228.5t-228.5 -153.5t-278 -56.5t-278.5 56.5t-228.5 153.5t-153.5 228.5t-56.5 278.5zM233 682q0 -109 41 -204t113 -166.5 t167 -112.5t204 -41t204 41t166.5 112.5t112.5 166.5t41 204t-41 204t-112.5 166.5t-167 112.5t-203.5 41q-109 0 -204 -41t-167 -112.5t-113 -166.5t-41 -204zM287 682q0 98 36.5 183t101 149.5t149.5 101.5t184 37q98 0 183 -37t149.5 -101.5t101.5 -149.5t37 -183 t-37 -183t-101.5 -149.5t-149.5 -101.5t-183 -37t-183.5 37t-150 101.5t-101 149.5t-36.5 183zM436 1446l170 317h299l170 -317h-233l-86 145l-86 -145h-234zM471 682q0 -59 22.5 -111.5t61.5 -91.5t91 -61.5t112 -22.5q59 0 111.5 22.5t91 61.5t61 91.5t22.5 111.5 t-22.5 111.5t-61 91.5t-91 61.5t-111.5 22.5t-111.5 -22.5t-91.5 -61.5t-61.5 -91.5t-22.5 -111.5zM573 1528h52l59 110h141l62 -110h51l-84 153h-197z" />
<glyph unicode="&#xd5;" d="M41 682q0 147 56.5 278.5t153.5 228.5t228 153.5t279 56.5q147 0 278 -56.5t228.5 -153.5t154 -228.5t56.5 -278.5t-56.5 -278.5t-154 -228.5t-228.5 -153.5t-278 -56.5t-278.5 56.5t-228.5 153.5t-153.5 228.5t-56.5 278.5zM233 682q0 -109 41 -204t113 -166.5 t167 -112.5t204 -41t204 41t166.5 112.5t112.5 166.5t41 204t-41 204t-112.5 166.5t-167 112.5t-203.5 41q-109 0 -204 -41t-167 -112.5t-113 -166.5t-41 -204zM287 682q0 98 36.5 183t101 149.5t149.5 101.5t184 37q98 0 183 -37t149.5 -101.5t101.5 -149.5t37 -183 t-37 -183t-101.5 -149.5t-149.5 -101.5t-183 -37t-183.5 37t-150 101.5t-101 149.5t-36.5 183zM430 1446q0 147 59.5 210.5t153.5 63.5q37 0 71 -10t61.5 -22.5t49 -22.5t37.5 -10q47 0 47 65h175q0 -147 -59.5 -210.5t-153.5 -63.5q-37 0 -71 10t-61.5 21.5t-50 21.5 t-37.5 10q-47 0 -47 -63h-174zM471 682q0 -59 22.5 -111.5t61.5 -91.5t91 -61.5t112 -22.5q59 0 111.5 22.5t91 61.5t61 91.5t22.5 111.5t-22.5 111.5t-61 91.5t-91 61.5t-111.5 22.5t-111.5 -22.5t-91.5 -61.5t-61.5 -91.5t-22.5 -111.5zM531 1524q6 23 20 36 q12 14 33.5 26.5t58.5 12.5q33 0 59.5 -11t53 -24.5t54.5 -24.5t61 -11q39 0 60 17.5t34 39.5q12 25 18 59q-8 -27 -20 -38q-12 -16 -35 -27.5t-57 -11.5q-29 0 -55.5 11t-55.5 24.5t-57.5 24.5t-59.5 11q-39 0 -61.5 -17.5t-32.5 -39.5q-16 -24 -18 -57z" />
<glyph unicode="&#xd6;" d="M41 682q0 147 56.5 278.5t153.5 228.5t228 153.5t279 56.5q147 0 278 -56.5t228.5 -153.5t154 -228.5t56.5 -278.5t-56.5 -278.5t-154 -228.5t-228.5 -153.5t-278 -56.5t-278.5 56.5t-228.5 153.5t-153.5 228.5t-56.5 278.5zM233 682q0 -109 41 -204t113 -166.5 t167 -112.5t204 -41t204 41t166.5 112.5t112.5 166.5t41 204t-41 204t-112.5 166.5t-167 112.5t-203.5 41q-109 0 -204 -41t-167 -112.5t-113 -166.5t-41 -204zM287 682q0 98 36.5 183t101 149.5t149.5 101.5t184 37q98 0 183 -37t149.5 -101.5t101.5 -149.5t37 -183 t-37 -183t-101.5 -149.5t-149.5 -101.5t-183 -37t-183.5 37t-150 101.5t-101 149.5t-36.5 183zM450 1446v207h262v-207h-262zM471 682q0 -59 22.5 -111.5t61.5 -91.5t91 -61.5t112 -22.5q59 0 111.5 22.5t91 61.5t61 91.5t22.5 111.5t-22.5 111.5t-61 91.5t-91 61.5 t-111.5 22.5t-111.5 -22.5t-91.5 -61.5t-61.5 -91.5t-22.5 -111.5zM536 1528h90v43h-90v-43zM802 1446v207h263v-207h-263zM888 1528h91v43h-91v-43z" />
<glyph unicode="&#xd7;" horiz-adv-x="933" d="M20 348l207 205l-207 205l242 241l205 -206l205 206l241 -241l-206 -205l206 -205l-241 -242l-205 207l-205 -207zM211 332l35 -35l221 221l221 -221l35 35l-221 221l221 221l-35 35l-221 -221l-221 221l-35 -35l221 -221z" />
<glyph unicode="&#xd8;" d="M31 215l102 115q-45 78 -68.5 166t-23.5 186q0 147 56.5 278.5t153.5 228.5t228 153.5t279 56.5q150 0 284 -60l105 115l338 -303l-105 -115q45 -78 70 -167t25 -187q0 -147 -56.5 -278.5t-154 -228.5t-228.5 -153.5t-278 -56.5q-152 0 -287 60l-102 -113zM233 682 q0 -111 41 -206t113 -167l-96 -106l37 -35l98 108q68 -55 150.5 -86.5t181.5 -31.5q109 0 204 41t166.5 112.5t112.5 166.5t41 204q0 111 -42 206t-114 167l99 108l-37 35l-101 -111q-68 55 -151.5 87t-177.5 32q-109 0 -204 -41t-167 -112.5t-113 -166.5t-41 -204zM287 682 q0 98 36.5 183t101 149.5t149.5 101.5t184 37q98 0 183 -37t149.5 -101.5t101.5 -149.5t37 -183t-37 -183t-101.5 -149.5t-149.5 -101.5t-183 -37t-183.5 37t-150 101.5t-101 149.5t-36.5 183zM471 682q0 -59 22.5 -111.5t61.5 -91.5t91 -61.5t112 -22.5q59 0 111.5 22.5 t91 61.5t61 91.5t22.5 111.5t-22.5 111.5t-61 91.5t-91 61.5t-111.5 22.5t-111.5 -22.5t-91.5 -61.5t-61.5 -91.5t-22.5 -111.5z" />
<glyph unicode="&#xd9;" horiz-adv-x="1263" d="M66 498v868h436v-850q0 -72 29.5 -109.5t99.5 -37.5t99.5 37.5t29.5 109.5v850h438v-868q0 -135 -40 -235.5t-114.5 -166t-179 -98.5t-233.5 -33t-233.5 33t-178.5 98.5t-113.5 165.5t-39.5 236zM270 512q0 -172 93.5 -263t267.5 -91t268 91t94 263v690h-55v-690 q0 -301 -307 -301t-307 301v690h-54v-690zM330 1763h271l170 -317h-230zM488 1681l100 -153h43l-82 153h-61z" />
<glyph unicode="&#xda;" horiz-adv-x="1263" d="M66 498v868h436v-850q0 -72 29.5 -109.5t99.5 -37.5t99.5 37.5t29.5 109.5v850h438v-868q0 -135 -40 -235.5t-114.5 -166t-179 -98.5t-233.5 -33t-233.5 33t-178.5 98.5t-113.5 165.5t-39.5 236zM270 512q0 -172 93.5 -263t267.5 -91t268 91t94 263v690h-55v-690 q0 -301 -307 -301t-307 301v690h-54v-690zM493 1446l170 317h271l-211 -317h-230zM632 1528h43l101 153h-62z" />
<glyph unicode="&#xdb;" horiz-adv-x="1263" d="M66 498v868h436v-850q0 -72 29.5 -109.5t99.5 -37.5t99.5 37.5t29.5 109.5v850h438v-868q0 -135 -40 -235.5t-114.5 -166t-179 -98.5t-233.5 -33t-233.5 33t-178.5 98.5t-113.5 165.5t-39.5 236zM270 512q0 -172 93.5 -263t267.5 -91t268 91t94 263v690h-55v-690 q0 -301 -307 -301t-307 301v690h-54v-690zM311 1446l170 317h299l170 -317h-233l-86 145l-86 -145h-234zM448 1528h52l59 110h141l62 -110h51l-84 153h-197z" />
<glyph unicode="&#xdc;" horiz-adv-x="1263" d="M66 498v868h436v-850q0 -72 29.5 -109.5t99.5 -37.5t99.5 37.5t29.5 109.5v850h438v-868q0 -135 -40 -235.5t-114.5 -166t-179 -98.5t-233.5 -33t-233.5 33t-178.5 98.5t-113.5 165.5t-39.5 236zM270 512q0 -172 93.5 -263t267.5 -91t268 91t94 263v690h-55v-690 q0 -301 -307 -301t-307 301v690h-54v-690zM323 1446v207h262v-207h-262zM409 1528h90v43h-90v-43zM675 1446v207h263v-207h-263zM761 1528h91v43h-91v-43z" />
<glyph unicode="&#xdd;" horiz-adv-x="1202" d="M-41 1366h485l158 -289l156 289h485l-424 -778v-588h-436v588zM276 1202l297 -549v-489h56v489l299 549h-64l-262 -485l-264 485h-62zM463 1446l170 317h271l-211 -317h-230zM602 1528h43l101 153h-62z" />
<glyph unicode="&#xde;" horiz-adv-x="1165" d="M72 0v1366h436v-164q131 0 244.5 -28.5t198.5 -90t134.5 -161t49.5 -240.5t-49.5 -240.5t-134.5 -161t-198.5 -90t-244.5 -28.5v-162h-436zM276 164h54v162h178q92 0 171 21.5t136 64.5t89 110.5t32 159.5t-32 159.5t-89 110.5t-136 64.5t-171 21.5h-178v164h-54v-1038z M330 375v614h178q74 0 140.5 -15.5t117.5 -50t82 -94t31 -147.5t-31 -147.5t-82 -94t-117.5 -50t-140.5 -15.5h-178zM508 530h18q86 0 124 40t38 112t-38 112t-124 40h-18v-304z" />
<glyph unicode="&#xdf;" horiz-adv-x="1832" d="M31 1006q0 96 34.5 169.5t96 123t144.5 75t177 25.5q49 0 98.5 -5t88.5 -10q45 -6 88 -12v-383q-16 2 -37 4q-16 2 -36.5 4t-43.5 2q-12 0 -30.5 -1t-35 -5t-28.5 -14t-12 -29q0 -16 27.5 -40.5t67.5 -57.5t88 -76t88 -98t67.5 -125t27.5 -156q0 -90 -28.5 -168.5 t-89 -137t-154.5 -92.5t-223 -34q-78 0 -144.5 7.5t-118.5 17.5q-59 10 -108 24v410q45 -14 94 -23q41 -10 93 -16t106 -6q94 0 94 70q0 27 -28.5 54t-73 61t-94.5 75t-94 94t-72.5 120t-28.5 153zM207 178q29 -6 61 -10q29 -4 60.5 -7t64.5 -3q57 0 111.5 13t97.5 44 t68.5 79t25.5 118q0 59 -29.5 112.5t-75.5 102.5t-98.5 94t-98.5 91t-75.5 92t-29.5 95q0 74 47 114t151 40q16 0 34 -1t34 -3t33 -2v53q-14 0 -31 2q-14 2 -31.5 3t-36.5 1q-111 0 -182 -50t-71 -157q0 -57 29.5 -107t75.5 -98.5t98.5 -93.5t98.5 -91t75.5 -95t29.5 -102 q0 -98 -66.5 -149.5t-183.5 -51.5q-70 0 -127 10q-31 4 -59 10v-53zM942 1006q0 96 34.5 169.5t96 123t144.5 75t177 25.5q49 0 98.5 -5t88.5 -10q45 -6 88 -12v-383q-16 2 -37 4q-16 2 -36.5 4t-43.5 2q-12 0 -30.5 -1t-35 -5t-28.5 -14t-12 -29q0 -16 27.5 -40.5 t67.5 -57.5t88 -76t88 -98t67.5 -125t27.5 -156q0 -90 -28.5 -168.5t-89 -137t-154.5 -92.5t-223 -34q-78 0 -144.5 7.5t-118.5 17.5q-59 10 -108 24v410q45 -14 94 -23q41 -10 93 -16t106 -6q94 0 94 70q0 27 -28.5 54t-73 61t-94.5 75t-94 94t-72.5 120t-28.5 153z M1118 178q29 -6 61 -10q29 -4 60.5 -7t64.5 -3q57 0 111.5 13t97.5 44t68.5 79t25.5 118q0 59 -29.5 112.5t-75.5 102.5t-98.5 94t-98.5 91t-75.5 92t-29.5 95q0 74 47 114t151 40q16 0 34 -1t34 -3t33 -2v53q-14 0 -31 2q-14 2 -31.5 3t-36.5 1q-111 0 -182 -50t-71 -157 q0 -57 29.5 -107t75.5 -98.5t98.5 -93.5t98.5 -91t75.5 -95t29.5 -102q0 -98 -66.5 -149.5t-183.5 -51.5q-70 0 -127 10q-31 4 -59 10v-53z" />
<glyph unicode="&#xe0;" horiz-adv-x="1282" d="M-41 0l518 1366h328l518 -1366h-430l-45 123h-414l-45 -123h-430zM207 164h57l39 102h676l39 -102h57l-395 1038h-78zM299 1763h271l170 -317h-230zM322 315l319 838l320 -838h-639zM457 1681l100 -153h43l-82 153h-61zM549 424h184l-92 240z" />
<glyph unicode="&#xe1;" horiz-adv-x="1282" d="M-41 0l518 1366h328l518 -1366h-430l-45 123h-414l-45 -123h-430zM207 164h57l39 102h676l39 -102h57l-395 1038h-78zM322 315l319 838l320 -838h-639zM545 1446l170 317h271l-211 -317h-230zM549 424h184l-92 240zM684 1528h43l101 153h-62z" />
<glyph unicode="&#xe2;" horiz-adv-x="1282" d="M-41 0l518 1366h328l518 -1366h-430l-45 123h-414l-45 -123h-430zM207 164h57l39 102h676l39 -102h57l-395 1038h-78zM319 1446l170 317h299l170 -317h-233l-86 145l-86 -145h-234zM322 315l319 838l320 -838h-639zM456 1528h52l59 110h141l62 -110h51l-84 153h-197z M549 424h184l-92 240z" />
<glyph unicode="&#xe3;" horiz-adv-x="1282" d="M-41 0l518 1366h328l518 -1366h-430l-45 123h-414l-45 -123h-430zM207 164h57l39 102h676l39 -102h57l-395 1038h-78zM313 1446q0 147 59.5 210.5t153.5 63.5q37 0 71 -10t61.5 -22.5t49 -22.5t37.5 -10q47 0 47 65h175q0 -147 -59.5 -210.5t-153.5 -63.5q-37 0 -71 10 t-61.5 21.5t-50 21.5t-37.5 10q-47 0 -47 -63h-174zM322 315l319 838l320 -838h-639zM414 1524q6 23 20 36q12 14 33.5 26.5t58.5 12.5q33 0 59.5 -11t53 -24.5t54.5 -24.5t61 -11q39 0 60 17.5t34 39.5q12 25 18 59q-8 -27 -20 -38q-12 -16 -35 -27.5t-57 -11.5 q-29 0 -55.5 11t-55.5 24.5t-57.5 24.5t-59.5 11q-39 0 -61.5 -17.5t-32.5 -39.5q-16 -24 -18 -57zM549 424h184l-92 240z" />
<glyph unicode="&#xe4;" horiz-adv-x="1282" d="M-41 0l518 1366h328l518 -1366h-430l-45 123h-414l-45 -123h-430zM207 164h57l39 102h676l39 -102h57l-395 1038h-78zM322 315l319 838l320 -838h-639zM334 1446v207h262v-207h-262zM420 1528h90v43h-90v-43zM549 424h184l-92 240zM686 1446v207h263v-207h-263zM772 1528 h91v43h-91v-43z" />
<glyph unicode="&#xe5;" horiz-adv-x="1282" d="M-41 0l518 1366h328l518 -1366h-430l-45 123h-414l-45 -123h-430zM207 164h57l39 102h676l39 -102h57l-395 1038h-78zM322 315l319 838l320 -838h-639zM381 1671q0 53 20.5 100.5t55.5 83t82 56t100 20.5t100.5 -20.5t83 -56t56 -83t20.5 -100.5t-20.5 -100t-56 -82 t-83 -55.5t-100.5 -20.5t-100 20.5t-82 55.5t-55.5 82t-20.5 100zM463 1671q0 -74 51.5 -125t124.5 -51q74 0 126 51t52 125t-52 126t-126 52t-125 -52t-51 -126zM502 1671q0 59 39 99t98 40t99.5 -40t40.5 -99t-40 -98t-100 -39q-59 0 -98 39t-39 98zM549 424h184l-92 240z M584 1671q0 -23 16.5 -39t38.5 -16q23 0 40.5 16.5t17.5 38.5q0 23 -17.5 40t-40.5 17t-39 -17t-16 -40z" />
<glyph unicode="&#xe6;" horiz-adv-x="1800" d="M-41 0l518 1366h328l125 -332v332h805v-358h-369v-152h363v-340h-363v-158h383v-358h-856l-45 123h-414l-45 -123h-430zM207 164h57l39 102h676l39 -102h57l-395 1038h-78zM322 315l319 838l320 -838h-639zM549 424h184l-92 240zM1135 164h462v49h-409v449h389v49h-389 v442h409v49h-462v-1038z" />
<glyph unicode="&#xe7;" horiz-adv-x="1257" d="M41 682q0 164 57.5 296t155.5 226t229 144.5t279 50.5q117 0 208 -22.5t156 -51.5q39 -16 71 -33.5t60 -38.5l-215 -379q-16 12 -33.5 24.5t-37.5 23.5q-35 16 -83 31.5t-110 15.5q-63 0 -116.5 -22.5t-93.5 -61.5t-62.5 -91.5t-22.5 -111.5t23.5 -111.5t64.5 -91.5 t96.5 -61.5t120.5 -22.5q66 0 117 16.5t86 37.5q39 20 72 53l215 -379q-59 -45 -129 -78q-63 -29 -152.5 -53.5t-205.5 -26.5l-31 -63q53 -2 100 -25q39 -18 71 -58t32 -112q0 -39 -14.5 -81t-51.5 -77.5t-98.5 -58t-153.5 -22.5q-47 0 -86 4t-67 8l-64 12l41 158l45 -12 q23 -4 47.5 -7.5t52.5 -3.5q53 0 88 20.5t35 61.5t-33.5 57.5t-76.5 16.5q-16 0 -31.5 -2t-28.5 -4l-26 -4l102 202q-133 20 -243.5 80t-190.5 152t-124 213t-44 262zM246 682q0 -121 42 -217t115.5 -165t172 -105.5t208.5 -36.5q61 0 110.5 10t84.5 22q41 16 70 33l-29 49 q-29 -18 -62 -30q-31 -12 -73.5 -21.5t-100.5 -9.5q-113 0 -202.5 37t-152 100.5t-96.5 149.5t-34 184t34 184t95 149.5t149.5 100.5t196.5 37q53 0 95 -7t71 -18q35 -10 59 -24l29 49q-16 8 -33.5 14.5t-36.5 12.5q-35 10 -79.5 18t-104.5 8q-104 0 -199.5 -36.5 t-168 -105.5t-116.5 -166t-44 -216zM743 -430q4 0 26 6t45.5 21.5t43 43t19.5 70.5q0 41 -18.5 64.5t-41 36t-43 15.5t-22.5 3q2 0 16 -5t29.5 -18.5t28 -38t12.5 -63.5q0 -37 -13.5 -62.5t-30 -41t-31.5 -22.5t-20 -9z" />
<glyph unicode="&#xe8;" horiz-adv-x="942" d="M72 0v1366h805v-358h-369v-152h362v-340h-362v-158h383v-358h-819zM149 1763h271l170 -317h-230zM276 164h463v49h-409v449h389v49h-389v442h409v49h-463v-1038zM307 1681l100 -153h43l-82 153h-61z" />
<glyph unicode="&#xe9;" horiz-adv-x="942" d="M72 0v1366h805v-358h-369v-152h362v-340h-362v-158h383v-358h-819zM276 164h463v49h-409v449h389v49h-389v442h409v49h-463v-1038zM354 1446l170 317h271l-211 -317h-230zM493 1528h43l101 153h-62z" />
<glyph unicode="&#xea;" horiz-adv-x="942" d="M72 0v1366h805v-358h-369v-152h362v-340h-362v-158h383v-358h-819zM149 1446l170 317h299l170 -317h-233l-86 145l-86 -145h-234zM276 164h463v49h-409v449h389v49h-389v442h409v49h-463v-1038zM286 1528h52l59 110h141l62 -110h51l-84 153h-197z" />
<glyph unicode="&#xeb;" horiz-adv-x="942" d="M72 0v1366h805v-358h-369v-152h362v-340h-362v-158h383v-358h-819zM164 1446v207h262v-207h-262zM250 1528h90v43h-90v-43zM276 164h463v49h-409v449h389v49h-389v442h409v49h-463v-1038zM516 1446v207h263v-207h-263zM602 1528h91v43h-91v-43z" />
<glyph unicode="&#xec;" horiz-adv-x="606" d="M10 1763h271l170 -317h-230zM72 0v1366h463v-1366h-463zM168 1681l100 -153h43l-82 153h-61zM276 164h54v1038h-54v-1038z" />
<glyph unicode="&#xed;" horiz-adv-x="606" d="M72 0v1366h463v-1366h-463zM166 1446l170 317h271l-211 -317h-230zM276 164h54v1038h-54v-1038zM305 1528h43l101 153h-62z" />
<glyph unicode="&#xee;" horiz-adv-x="606" d="M-8 1446l170 317h299l170 -317h-233l-86 145l-86 -145h-234zM72 0v1366h463v-1366h-463zM129 1528h52l59 110h141l62 -110h51l-84 153h-197zM276 164h54v1038h-54v-1038z" />
<glyph unicode="&#xef;" horiz-adv-x="606" d="M4 1446v207h262v-207h-262zM72 0v1366h463v-1366h-463zM90 1528h90v43h-90v-43zM276 164h54v1038h-54v-1038zM356 1446v207h263v-207h-263zM442 1528h91v43h-91v-43z" />
<glyph unicode="&#xf0;" horiz-adv-x="1300" d="M0 545v317h72v504h379q193 0 343 -43t253.5 -129t158 -214t54.5 -296t-54.5 -296t-158 -214t-254 -130t-342.5 -44h-379v545h-72zM104 672h172v-508h175q299 0 451.5 136t152.5 384t-152.5 383t-451.5 135h-175v-485h-172v-45zM330 213v459h229v45h-229v436h121 q260 0 404 -117.5t144 -351.5q0 -233 -144 -352t-404 -119h-121zM508 389q154 0 237.5 73t83.5 222q0 150 -83.5 221.5t-237.5 71.5v-115h188v-317h-188v-156z" />
<glyph unicode="&#xf1;" horiz-adv-x="1306" d="M72 0v1366h358l377 -526v526h428v-1366h-361l-374 524v-524h-428zM262 164h53v946l676 -946h53v1038h-53v-946l-676 946h-53v-1038zM325 1446q0 147 59.5 210.5t153.5 63.5q37 0 71 -10t61.5 -22.5t49 -22.5t37.5 -10q47 0 47 65h175q0 -147 -59.5 -210.5t-153.5 -63.5 q-37 0 -71 10t-61.5 21.5t-50 21.5t-37.5 10q-47 0 -47 -63h-174zM426 1524q6 23 20 36q12 14 33.5 26.5t58.5 12.5q33 0 59.5 -11t53 -24.5t54.5 -24.5t61 -11q39 0 60 17.5t34 39.5q12 25 18 59q-8 -27 -20 -38q-12 -16 -35 -27.5t-57 -11.5q-29 0 -55.5 11t-55.5 24.5 t-57.5 24.5t-59.5 11q-39 0 -61.5 -17.5t-32.5 -39.5q-16 -24 -18 -57z" />
<glyph unicode="&#xf2;" d="M41 682q0 147 56.5 278.5t153.5 228.5t228 153.5t279 56.5q147 0 278 -56.5t228.5 -153.5t154 -228.5t56.5 -278.5t-56.5 -278.5t-154 -228.5t-228.5 -153.5t-278 -56.5t-278.5 56.5t-228.5 153.5t-153.5 228.5t-56.5 278.5zM233 682q0 -109 41 -204t113 -166.5 t167 -112.5t204 -41t204 41t166.5 112.5t112.5 166.5t41 204t-41 204t-112.5 166.5t-167 112.5t-203.5 41q-109 0 -204 -41t-167 -112.5t-113 -166.5t-41 -204zM287 682q0 98 36.5 183t101 149.5t149.5 101.5t184 37q98 0 183 -37t149.5 -101.5t101.5 -149.5t37 -183 t-37 -183t-101.5 -149.5t-149.5 -101.5t-183 -37t-183.5 37t-150 101.5t-101 149.5t-36.5 183zM457 1763h271l170 -317h-230zM471 682q0 -59 22.5 -111.5t61.5 -91.5t91 -61.5t112 -22.5q59 0 111.5 22.5t91 61.5t61 91.5t22.5 111.5t-22.5 111.5t-61 91.5t-91 61.5 t-111.5 22.5t-111.5 -22.5t-91.5 -61.5t-61.5 -91.5t-22.5 -111.5zM615 1681l100 -153h43l-82 153h-61z" />
<glyph unicode="&#xf3;" d="M41 682q0 147 56.5 278.5t153.5 228.5t228 153.5t279 56.5q147 0 278 -56.5t228.5 -153.5t154 -228.5t56.5 -278.5t-56.5 -278.5t-154 -228.5t-228.5 -153.5t-278 -56.5t-278.5 56.5t-228.5 153.5t-153.5 228.5t-56.5 278.5zM233 682q0 -109 41 -204t113 -166.5 t167 -112.5t204 -41t204 41t166.5 112.5t112.5 166.5t41 204t-41 204t-112.5 166.5t-167 112.5t-203.5 41q-109 0 -204 -41t-167 -112.5t-113 -166.5t-41 -204zM287 682q0 98 36.5 183t101 149.5t149.5 101.5t184 37q98 0 183 -37t149.5 -101.5t101.5 -149.5t37 -183 t-37 -183t-101.5 -149.5t-149.5 -101.5t-183 -37t-183.5 37t-150 101.5t-101 149.5t-36.5 183zM471 682q0 -59 22.5 -111.5t61.5 -91.5t91 -61.5t112 -22.5q59 0 111.5 22.5t91 61.5t61 91.5t22.5 111.5t-22.5 111.5t-61 91.5t-91 61.5t-111.5 22.5t-111.5 -22.5 t-91.5 -61.5t-61.5 -91.5t-22.5 -111.5zM620 1446l170 317h271l-211 -317h-230zM759 1528h43l101 153h-62z" />
<glyph unicode="&#xf4;" d="M41 682q0 147 56.5 278.5t153.5 228.5t228 153.5t279 56.5q147 0 278 -56.5t228.5 -153.5t154 -228.5t56.5 -278.5t-56.5 -278.5t-154 -228.5t-228.5 -153.5t-278 -56.5t-278.5 56.5t-228.5 153.5t-153.5 228.5t-56.5 278.5zM233 682q0 -109 41 -204t113 -166.5 t167 -112.5t204 -41t204 41t166.5 112.5t112.5 166.5t41 204t-41 204t-112.5 166.5t-167 112.5t-203.5 41q-109 0 -204 -41t-167 -112.5t-113 -166.5t-41 -204zM287 682q0 98 36.5 183t101 149.5t149.5 101.5t184 37q98 0 183 -37t149.5 -101.5t101.5 -149.5t37 -183 t-37 -183t-101.5 -149.5t-149.5 -101.5t-183 -37t-183.5 37t-150 101.5t-101 149.5t-36.5 183zM436 1446l170 317h299l170 -317h-233l-86 145l-86 -145h-234zM471 682q0 -59 22.5 -111.5t61.5 -91.5t91 -61.5t112 -22.5q59 0 111.5 22.5t91 61.5t61 91.5t22.5 111.5 t-22.5 111.5t-61 91.5t-91 61.5t-111.5 22.5t-111.5 -22.5t-91.5 -61.5t-61.5 -91.5t-22.5 -111.5zM573 1528h52l59 110h141l62 -110h51l-84 153h-197z" />
<glyph unicode="&#xf5;" d="M41 682q0 147 56.5 278.5t153.5 228.5t228 153.5t279 56.5q147 0 278 -56.5t228.5 -153.5t154 -228.5t56.5 -278.5t-56.5 -278.5t-154 -228.5t-228.5 -153.5t-278 -56.5t-278.5 56.5t-228.5 153.5t-153.5 228.5t-56.5 278.5zM233 682q0 -109 41 -204t113 -166.5 t167 -112.5t204 -41t204 41t166.5 112.5t112.5 166.5t41 204t-41 204t-112.5 166.5t-167 112.5t-203.5 41q-109 0 -204 -41t-167 -112.5t-113 -166.5t-41 -204zM287 682q0 98 36.5 183t101 149.5t149.5 101.5t184 37q98 0 183 -37t149.5 -101.5t101.5 -149.5t37 -183 t-37 -183t-101.5 -149.5t-149.5 -101.5t-183 -37t-183.5 37t-150 101.5t-101 149.5t-36.5 183zM430 1446q0 147 59.5 210.5t153.5 63.5q37 0 71 -10t61.5 -22.5t49 -22.5t37.5 -10q47 0 47 65h175q0 -147 -59.5 -210.5t-153.5 -63.5q-37 0 -71 10t-61.5 21.5t-50 21.5 t-37.5 10q-47 0 -47 -63h-174zM471 682q0 -59 22.5 -111.5t61.5 -91.5t91 -61.5t112 -22.5q59 0 111.5 22.5t91 61.5t61 91.5t22.5 111.5t-22.5 111.5t-61 91.5t-91 61.5t-111.5 22.5t-111.5 -22.5t-91.5 -61.5t-61.5 -91.5t-22.5 -111.5zM531 1524q6 23 20 36 q12 14 33.5 26.5t58.5 12.5q33 0 59.5 -11t53 -24.5t54.5 -24.5t61 -11q39 0 60 17.5t34 39.5q12 25 18 59q-8 -27 -20 -38q-12 -16 -35 -27.5t-57 -11.5q-29 0 -55.5 11t-55.5 24.5t-57.5 24.5t-59.5 11q-39 0 -61.5 -17.5t-32.5 -39.5q-16 -24 -18 -57z" />
<glyph unicode="&#xf6;" d="M41 682q0 147 56.5 278.5t153.5 228.5t228 153.5t279 56.5q147 0 278 -56.5t228.5 -153.5t154 -228.5t56.5 -278.5t-56.5 -278.5t-154 -228.5t-228.5 -153.5t-278 -56.5t-278.5 56.5t-228.5 153.5t-153.5 228.5t-56.5 278.5zM233 682q0 -109 41 -204t113 -166.5 t167 -112.5t204 -41t204 41t166.5 112.5t112.5 166.5t41 204t-41 204t-112.5 166.5t-167 112.5t-203.5 41q-109 0 -204 -41t-167 -112.5t-113 -166.5t-41 -204zM287 682q0 98 36.5 183t101 149.5t149.5 101.5t184 37q98 0 183 -37t149.5 -101.5t101.5 -149.5t37 -183 t-37 -183t-101.5 -149.5t-149.5 -101.5t-183 -37t-183.5 37t-150 101.5t-101 149.5t-36.5 183zM450 1446v207h262v-207h-262zM471 682q0 -59 22.5 -111.5t61.5 -91.5t91 -61.5t112 -22.5q59 0 111.5 22.5t91 61.5t61 91.5t22.5 111.5t-22.5 111.5t-61 91.5t-91 61.5 t-111.5 22.5t-111.5 -22.5t-91.5 -61.5t-61.5 -91.5t-22.5 -111.5zM536 1528h90v43h-90v-43zM802 1446v207h263v-207h-263zM888 1528h91v43h-91v-43z" />
<glyph unicode="&#xf7;" horiz-adv-x="942" d="M41 383v340h274v258h312v-258h274v-340h-274v-258h-312v258h-274zM164 528h614v50h-614v-50zM438 250h66v61h-66v-61zM438 795h66v61h-66v-61z" />
<glyph unicode="&#xf8;" d="M31 215l102 115q-45 78 -68.5 166t-23.5 186q0 147 56.5 278.5t153.5 228.5t228 153.5t279 56.5q150 0 284 -60l105 115l338 -303l-105 -115q45 -78 70 -167t25 -187q0 -147 -56.5 -278.5t-154 -228.5t-228.5 -153.5t-278 -56.5q-152 0 -287 60l-102 -113zM233 682 q0 -111 41 -206t113 -167l-96 -106l37 -35l98 108q68 -55 150.5 -86.5t181.5 -31.5q109 0 204 41t166.5 112.5t112.5 166.5t41 204q0 111 -42 206t-114 167l99 108l-37 35l-101 -111q-68 55 -151.5 87t-177.5 32q-109 0 -204 -41t-167 -112.5t-113 -166.5t-41 -204zM287 682 q0 98 36.5 183t101 149.5t149.5 101.5t184 37q98 0 183 -37t149.5 -101.5t101.5 -149.5t37 -183t-37 -183t-101.5 -149.5t-149.5 -101.5t-183 -37t-183.5 37t-150 101.5t-101 149.5t-36.5 183zM471 682q0 -59 22.5 -111.5t61.5 -91.5t91 -61.5t112 -22.5q59 0 111.5 22.5 t91 61.5t61 91.5t22.5 111.5t-22.5 111.5t-61 91.5t-91 61.5t-111.5 22.5t-111.5 -22.5t-91.5 -61.5t-61.5 -91.5t-22.5 -111.5z" />
<glyph unicode="&#xf9;" horiz-adv-x="1263" d="M66 498v868h436v-850q0 -72 29.5 -109.5t99.5 -37.5t99.5 37.5t29.5 109.5v850h438v-868q0 -135 -40 -235.5t-114.5 -166t-179 -98.5t-233.5 -33t-233.5 33t-178.5 98.5t-113.5 165.5t-39.5 236zM270 512q0 -172 93.5 -263t267.5 -91t268 91t94 263v690h-55v-690 q0 -301 -307 -301t-307 301v690h-54v-690zM330 1763h271l170 -317h-230zM488 1681l100 -153h43l-82 153h-61z" />
<glyph unicode="&#xfa;" horiz-adv-x="1263" d="M66 498v868h436v-850q0 -72 29.5 -109.5t99.5 -37.5t99.5 37.5t29.5 109.5v850h438v-868q0 -135 -40 -235.5t-114.5 -166t-179 -98.5t-233.5 -33t-233.5 33t-178.5 98.5t-113.5 165.5t-39.5 236zM270 512q0 -172 93.5 -263t267.5 -91t268 91t94 263v690h-55v-690 q0 -301 -307 -301t-307 301v690h-54v-690zM493 1446l170 317h271l-211 -317h-230zM632 1528h43l101 153h-62z" />
<glyph unicode="&#xfb;" horiz-adv-x="1263" d="M66 498v868h436v-850q0 -72 29.5 -109.5t99.5 -37.5t99.5 37.5t29.5 109.5v850h438v-868q0 -135 -40 -235.5t-114.5 -166t-179 -98.5t-233.5 -33t-233.5 33t-178.5 98.5t-113.5 165.5t-39.5 236zM270 512q0 -172 93.5 -263t267.5 -91t268 91t94 263v690h-55v-690 q0 -301 -307 -301t-307 301v690h-54v-690zM311 1446l170 317h299l170 -317h-233l-86 145l-86 -145h-234zM448 1528h52l59 110h141l62 -110h51l-84 153h-197z" />
<glyph unicode="&#xfc;" horiz-adv-x="1263" d="M66 498v868h436v-850q0 -72 29.5 -109.5t99.5 -37.5t99.5 37.5t29.5 109.5v850h438v-868q0 -135 -40 -235.5t-114.5 -166t-179 -98.5t-233.5 -33t-233.5 33t-178.5 98.5t-113.5 165.5t-39.5 236zM270 512q0 -172 93.5 -263t267.5 -91t268 91t94 263v690h-55v-690 q0 -301 -307 -301t-307 301v690h-54v-690zM323 1446v207h262v-207h-262zM409 1528h90v43h-90v-43zM675 1446v207h263v-207h-263zM761 1528h91v43h-91v-43z" />
<glyph unicode="&#xfd;" horiz-adv-x="1202" d="M-41 1366h485l158 -289l156 289h485l-424 -778v-588h-436v588zM276 1202l297 -549v-489h56v489l299 549h-64l-262 -485l-264 485h-62zM463 1446l170 317h271l-211 -317h-230zM602 1528h43l101 153h-62z" />
<glyph unicode="&#xfe;" horiz-adv-x="1165" d="M72 0v1366h436v-164q131 0 244.5 -28.5t198.5 -90t134.5 -161t49.5 -240.5t-49.5 -240.5t-134.5 -161t-198.5 -90t-244.5 -28.5v-162h-436zM276 164h54v162h178q92 0 171 21.5t136 64.5t89 110.5t32 159.5t-32 159.5t-89 110.5t-136 64.5t-171 21.5h-178v164h-54v-1038z M330 375v614h178q74 0 140.5 -15.5t117.5 -50t82 -94t31 -147.5t-31 -147.5t-82 -94t-117.5 -50t-140.5 -15.5h-178zM508 530h18q86 0 124 40t38 112t-38 112t-124 40h-18v-304z" />
<glyph unicode="&#xff;" horiz-adv-x="1202" d="M-41 1366h485l158 -289l156 289h485l-424 -778v-588h-436v588zM276 1202l297 -549v-489h56v489l299 549h-64l-262 -485l-264 485h-62zM293 1446v207h262v-207h-262zM379 1528h90v43h-90v-43zM645 1446v207h263v-207h-263zM731 1528h91v43h-91v-43z" />
<glyph unicode="&#x152;" horiz-adv-x="2072" d="M41 682q0 147 56.5 278.5t153.5 228.5t228 153.5t279 56.5q129 0 240.5 -42t203.5 -114v123h805v-358h-369v-152h363v-340h-363v-158h383v-358h-819v119q-92 -72 -203.5 -113t-240.5 -41q-147 0 -278.5 56.5t-228.5 153.5t-153.5 228.5t-56.5 278.5zM233 682 q0 -109 41 -204t113 -166.5t167 -112.5t204 -41t204 41t166.5 112.5t112.5 166.5t41 204t-41 204t-112.5 166.5t-167 112.5t-203.5 41q-109 0 -204 -41t-167 -112.5t-113 -166.5t-41 -204zM287 682q0 98 36.5 183t101 149.5t149.5 101.5t184 37q98 0 183 -37t149.5 -101.5 t101.5 -149.5t37 -183t-37 -183t-101.5 -149.5t-149.5 -101.5t-183 -37t-183.5 37t-150 101.5t-101 149.5t-36.5 183zM471 682q0 -59 22.5 -111.5t61.5 -91.5t91 -61.5t112 -22.5q59 0 111.5 22.5t91 61.5t61 91.5t22.5 111.5t-22.5 111.5t-61 91.5t-91 61.5t-111.5 22.5 t-111.5 -22.5t-91.5 -61.5t-61.5 -91.5t-22.5 -111.5zM1407 164h463v49h-410v449h389v49h-389v442h410v49h-463v-1038z" />
<glyph unicode="&#x153;" horiz-adv-x="2072" d="M41 682q0 147 56.5 278.5t153.5 228.5t228 153.5t279 56.5q129 0 240.5 -42t203.5 -114v123h805v-358h-369v-152h363v-340h-363v-158h383v-358h-819v119q-92 -72 -203.5 -113t-240.5 -41q-147 0 -278.5 56.5t-228.5 153.5t-153.5 228.5t-56.5 278.5zM233 682 q0 -109 41 -204t113 -166.5t167 -112.5t204 -41t204 41t166.5 112.5t112.5 166.5t41 204t-41 204t-112.5 166.5t-167 112.5t-203.5 41q-109 0 -204 -41t-167 -112.5t-113 -166.5t-41 -204zM287 682q0 98 36.5 183t101 149.5t149.5 101.5t184 37q98 0 183 -37t149.5 -101.5 t101.5 -149.5t37 -183t-37 -183t-101.5 -149.5t-149.5 -101.5t-183 -37t-183.5 37t-150 101.5t-101 149.5t-36.5 183zM471 682q0 -59 22.5 -111.5t61.5 -91.5t91 -61.5t112 -22.5q59 0 111.5 22.5t91 61.5t61 91.5t22.5 111.5t-22.5 111.5t-61 91.5t-91 61.5t-111.5 22.5 t-111.5 -22.5t-91.5 -61.5t-61.5 -91.5t-22.5 -111.5zM1407 164h463v49h-410v449h389v49h-389v442h410v49h-463v-1038z" />
<glyph unicode="&#x178;" horiz-adv-x="1202" d="M-41 1366h485l158 -289l156 289h485l-424 -778v-588h-436v588zM276 1202l297 -549v-489h56v489l299 549h-64l-262 -485l-264 485h-62zM293 1446v207h262v-207h-262zM379 1528h90v43h-90v-43zM645 1446v207h263v-207h-263zM731 1528h91v43h-91v-43z" />
<glyph unicode="&#x2c6;" horiz-adv-x="741" d="M51 1057l170 317h299l170 -317h-233l-86 145l-86 -145h-234zM188 1139h52l59 110h141l62 -110h51l-84 153h-197z" />
<glyph unicode="&#x2dc;" horiz-adv-x="755" d="M51 1057q0 147 59.5 210.5t153.5 63.5q37 0 71 -10t61.5 -22.5t49 -22.5t37.5 -10q47 0 47 65h175q0 -147 -59.5 -210.5t-153.5 -63.5q-37 0 -71 10t-61.5 21.5t-50 21.5t-37.5 10q-47 0 -47 -63h-174zM152 1135q6 23 20 36q12 14 33.5 26.5t58.5 12.5q33 0 59.5 -11 t53 -24.5t54.5 -24.5t61 -11q39 0 60 17.5t34 39.5q12 25 18 59q-8 -27 -20 -38q-12 -16 -35 -27.5t-57 -11.5q-29 0 -55.5 11t-55.5 24.5t-57.5 24.5t-59.5 11q-39 0 -61.5 -17.5t-32.5 -39.5q-16 -24 -18 -57z" />
<glyph unicode="&#x2000;" horiz-adv-x="965" />
<glyph unicode="&#x2001;" horiz-adv-x="1931" />
<glyph unicode="&#x2002;" horiz-adv-x="965" />
<glyph unicode="&#x2003;" horiz-adv-x="1931" />
<glyph unicode="&#x2004;" horiz-adv-x="643" />
<glyph unicode="&#x2005;" horiz-adv-x="482" />
<glyph unicode="&#x2006;" horiz-adv-x="321" />
<glyph unicode="&#x2007;" horiz-adv-x="321" />
<glyph unicode="&#x2008;" horiz-adv-x="241" />
<glyph unicode="&#x2009;" horiz-adv-x="386" />
<glyph unicode="&#x200a;" horiz-adv-x="107" />
<glyph unicode="&#x2010;" horiz-adv-x="643" d="M51 512v342h541v-342h-541zM176 659h295v48h-295v-48z" />
<glyph unicode="&#x2011;" horiz-adv-x="643" d="M51 512v342h541v-342h-541zM176 659h295v48h-295v-48z" />
<glyph unicode="&#x2012;" horiz-adv-x="643" d="M51 512v342h541v-342h-541zM176 659h295v48h-295v-48z" />
<glyph unicode="&#x2013;" horiz-adv-x="1003" d="M61 524v318h881v-318h-881zM186 659h635v48h-635v-48z" />
<glyph unicode="&#x2014;" d="M61 524v318h1393v-318h-1393zM186 659h1147v48h-1147v-48z" />
<glyph unicode="&#x2018;" horiz-adv-x="567" d="M0 813l219 553h348l-178 -553h-389zM193 895h51l153 389h-51z" />
<glyph unicode="&#x2019;" horiz-adv-x="567" d="M0 813l178 553h389l-219 -553h-348zM170 895h51l154 389h-51z" />
<glyph unicode="&#x201a;" horiz-adv-x="567" d="M0 -211l178 553h389l-219 -553h-348zM170 -129h51l154 389h-51z" />
<glyph unicode="&#x201c;" horiz-adv-x="1044" d="M0 813l219 553h348l-178 -553h-389zM193 895h51l153 389h-51zM477 813l219 553h348l-178 -553h-389zM670 895h51l153 389h-51z" />
<glyph unicode="&#x201d;" horiz-adv-x="1044" d="M0 813l178 553h389l-219 -553h-348zM170 895h51l154 389h-51zM477 813l178 553h389l-219 -553h-348zM647 895h51l154 389h-51z" />
<glyph unicode="&#x201e;" horiz-adv-x="1044" d="M0 -211l178 553h389l-219 -553h-348zM170 -129h51l154 389h-51zM477 -211l178 553h389l-219 -553h-348zM647 -129h51l154 389h-51z" />
<glyph unicode="&#x2022;" horiz-adv-x="770" d="M133 684q0 51 19.5 97t54.5 81t80 54.5t98 19.5q51 0 97 -19.5t81 -54.5t54.5 -81t19.5 -97q0 -53 -19.5 -98t-54.5 -80t-81 -54.5t-97 -19.5q-53 0 -98 19.5t-80 54.5t-54.5 80t-19.5 98z" />
<glyph unicode="&#x2026;" horiz-adv-x="1683" d="M61 0v342h439v-342h-439zM184 147h193v48h-193v-48zM623 0v342h438v-342h-438zM745 147h193v48h-193v-48zM1184 0v342h438v-342h-438zM1307 147h192v48h-192v-48z" />
<glyph unicode="&#x202f;" horiz-adv-x="386" />
<glyph unicode="&#x2039;" horiz-adv-x="634" d="M0 465l270 463h344l-249 -463l249 -465h-344zM156 465l206 -369h54l-207 369l207 366h-54z" />
<glyph unicode="&#x203a;" horiz-adv-x="634" d="M20 0l250 465l-250 463h345l270 -463l-270 -465h-345zM219 96h53l207 369l-207 366h-53l207 -366z" />
<glyph unicode="&#x205f;" horiz-adv-x="482" />
<glyph unicode="&#x20ac;" horiz-adv-x="1042" d="M-41 444l102 471h64q27 102 77 190.5t122.5 154t169 102.5t217.5 37q186 0 352 -80l-174 -348q-27 16 -65 25.5t-70 9.5q-61 0 -105.5 -25t-73.5 -66h265l-103 -471h-157q29 -41 71.5 -63.5t102.5 -22.5q31 0 59.5 7.5t75.5 27.5l174 -348q-82 -39 -168 -59.5t-184 -20.5 q-119 0 -215.5 37t-170 101.5t-123.5 151.5t-77 189h-166zM121 575h172q12 -96 47 -174.5t92 -136t135 -88.5t174 -31q29 0 58.5 4.5t79.5 18.5l-23 45q-49 -18 -115 -18q-88 0 -156.5 29.5t-117.5 81.5t-79 122t-40 147h285l10 50h-301q-2 14 -2 27.5v29.5v25.5t2 27.5h326 l10 49h-332q12 80 42 150t78 122t116.5 82.5t158.5 30.5q45 0 82 -10l33 -8l23 45q-47 12 -78 17.5t-60 5.5q-98 0 -176 -32t-134 -89.5t-91 -137t-47 -176.5h-127l-10 -49h133q-2 -14 -2 -26.5v-26.5v-29.5t2 -27.5h-158z" />
<glyph unicode="&#x2122;" horiz-adv-x="1206" d="M20 1212v154h431v-154h-119v-460h-195v460h-117zM522 752v614h156l166 -244l166 244h155v-614h-188v231l-133 -195l-133 195v-231h-189z" />
<glyph unicode="&#x25fc;" horiz-adv-x="1361" d="M0 0v1362h1362v-1362h-1362z" />
<glyph unicode="&#xfb01;" horiz-adv-x="1523" d="M72 0v1366h805v-358h-369v-152h362v-340h-362v-516h-436zM276 164h54v498h389v49h-389v442h409v49h-463v-1038zM990 0v1366h463v-1366h-463zM1194 164h54v1038h-54v-1038z" />
<glyph unicode="&#xfb02;" horiz-adv-x="1820" d="M72 0v1366h805v-358h-369v-152h362v-340h-362v-516h-436zM276 164h54v498h389v49h-389v442h409v49h-463v-1038zM990 0v1366h454v-1008h377v-358h-831zM1194 164h512v49h-458v989h-54v-1038z" />
</font>
</defs>
</svg>
